<?xml version="1.0" encoding="utf-8"?>
<!-- Generator: Adobe Illustrator 25.4.1, SVG Export Plug-In . SVG Version: 6.00 Build 0)  -->
<svg version="1.1" baseProfile="tiny" id="Capa_1" xmlns="http://www.w3.org/2000/svg" xmlns:xlink="http://www.w3.org/1999/xlink"
	 x="0px" y="0px" viewBox="0 0 500 500" overflow="visible" xml:space="preserve">
<g>
	<path fill="#FFFFFF" d="M332.76,93.82c13.76-13.83,27.2-27.34,40.65-40.84c1.45-1.45,2.73-3.46,4.49-4.1c1.9-0.69,4.28-0.06,6.45,0
		c-0.19,2.02,0.39,4.76-0.71,5.93c-4.88,5.24-10.24,10.03-15.5,15.05c46.74,55.74,62.19,118.18,39.61,187.01
		c-22.62,68.93-72.2,109.91-143.03,127.14c4.37,11.3,8.69,22.68,13.29,33.94c0.4,0.97,2.65,1.61,4.07,1.66
		c5.33,0.19,10.67,0.18,16,0.03c4.72-0.14,7.03,1.79,6.42,7.5c-0.61,5.64-0.49,11.33,0.03,16.98c0.5,5.47-1.71,7.32-6.4,7.32
		c-46.37-0.07-92.74-0.08-139.11-0.02c-4.7,0.01-6.74-1.96-6.31-7.22c0.49-6.02,0.3-12.06-0.03-18.09c-0.25-4.6,1.77-6.59,6.02-6.41
		c0.41,0.02,0.82,0.01,1.23-0.01c6.31-0.23,14.16,1.73,18.48-1.32c4.36-3.07,5.25-11.1,7.57-16.99c2.23-5.67,4.34-11.4,6.77-17.81
		c-34.73-7.1-64.99-22.19-92.67-47.2c-3.32,4.1-6.21,8.42-9.91,11.86c-0.24,0.22-0.52,0.4-0.83,0.55c-3.46,1.62-7.27-2.15-5.59-5.58
		c0.14-0.28,0.31-0.53,0.51-0.75c11.64-12.13,23.64-23.91,35.52-35.81c1.56-1.56,3.05-3.19,4.56-4.77
		c-61.26-62.92-51.93-156.34,1.26-208.62C178.32,41.47,269.8,33.12,332.76,93.82z M90.59,197.72
		c-0.34,75.64,61.56,137.93,137.37,138.25c75.75,0.32,138.45-61.21,138.83-136.24c0.38-76.23-60.73-139.41-135.25-139.82
		C153.27,59.5,90.94,120.43,90.59,197.72z M268.92,419.49c-4.77-12.4-9.26-24.01-13.71-35.64c-2.07-5.43-0.9-7.26,4.83-8.56
		c7.78-1.76,15.66-3.27,23.25-5.65c111.42-34.9,160.46-167.93,98.27-266.77c-5.71-9.08-13.69-19.24-18.88-26.33
		c0,0-8.62,8.62-8.87,8.48c59.99,68.05,54.21,164.22,1.76,223.56c-25.71,29.08-57.57,47.94-95.84,54.77
		c-54.21,9.68-102.15-4.63-144.09-40.3c-2.81,2.99-5.25,5.58-7.79,8.28c1.33,1.23,2.06,1.94,2.82,2.6
		c24.85,21.64,53.51,35.37,85.9,41.3c6.66,1.22,7.69,2.85,5.34,9.12c-2.37,6.33-4.88,12.61-7.28,18.93
		c-1.98,5.22-3.9,10.45-6.05,16.21H268.92z M122.39,316.11c54.68,52.21,154.94,60.46,220.42-6.8
		c66.44-68.24,53.18-167.35,4.01-217.4c-2.64,2.76-5.27,5.52-7.9,8.28c57.17,66.52,41.11,154.07-5.15,200.33
		c-24.52,24.52-53.8,39.49-88.19,43.29c-43.11,4.76-81.33-7.66-114.21-35.79C128.11,310.95,125.26,313.53,122.39,316.11z
		 M295.52,428.85H161.74v13.35h133.78V428.85z"/>
	<path fill="#C6D900" d="M157.63,123.48c-0.07-20.13,13.32-33.27,29.34-32.39c16.5,0.91,28.91,15.56,26.53,32.02
		c-3.25,22.5-13.64,42.39-23.79,62.29c-1.92,3.77-5.92,4.07-7.84,0.36C171.01,164.86,160.48,143.77,157.63,123.48z M185.25,173.24
		c7.09-9.35,19.03-40.74,19.46-51.55c0.12-3-0.09-6.23-1.07-9.03c-3.42-9.69-13.49-14.67-23.34-11.93
		c-9.66,2.69-15.62,12.43-13.63,23.14C169.91,141.35,177.43,157.25,185.25,173.24z"/>
	<path fill="#C6D900" d="M279.15,150.45c17.17-0.18,30.66,15.3,27.98,32.3c-3.5,22.22-13.56,41.98-23.68,61.67
		c-2.16,4.21-6.25,4.09-8.47-0.22c-9.69-18.77-19.05-37.74-23.16-58.67C248.14,166.76,260.94,150.64,279.15,150.45z M277.2,232.51
		c0.91-0.12,1.81-0.24,2.72-0.36c7.61-16,15.59-31.88,18.37-49.7c1.35-8.67-1.4-15.94-9.19-20.48c-6.97-4.05-14.25-3.86-20.86,0.82
		c-7.28,5.16-10.17,12.76-7.6,21.11C265.69,200.26,271.63,216.33,277.2,232.51z"/>
	<path fill="#C6D900" d="M243.93,252.26c-0.94,11.92-6.39,24.99-12.02,37.96c-3.51,8.07-7.41,15.99-11.45,23.81
		c-2.3,4.45-6.32,4.85-8.45,0.73c-10.33-20.03-20.87-40.09-23.84-62.85c-2.16-16.51,10.64-31,27.07-31.58
		C231.17,219.76,244.46,233.39,243.93,252.26z M215.61,302.74c7.04-10,18.42-39.7,19.59-50.56c0.72-6.7-0.87-12.62-5.8-17.41
		c-5.88-5.72-14.85-7.04-22.22-3.34c-7.58,3.8-11.65,11.63-10.02,21.85C199.96,270.85,207.91,286.57,215.61,302.74z"/>
	<path fill="#FFFFFF" d="M330.43,185.43c-2.39-3.45-4.67-5.28-4.57-6.97c0.1-1.72,2.55-3.3,3.97-4.94c1.56,1.55,4.08,2.93,4.4,4.7
		C334.52,179.83,332.43,181.88,330.43,185.43z"/>
	<path fill="#FFFFFF" d="M127.55,209.3c1.91,3.47,3.86,5.43,3.74,7.25c-0.11,1.55-2.6,2.94-4.04,4.41
		c-1.53-1.85-3.74-3.51-4.31-5.61C122.64,214.21,125.14,212.32,127.55,209.3z"/>
	<path fill="#FFFFFF" d="M136.77,165.24c-2.69,2.44-4.3,5.04-6,5.11c-1.53,0.06-4.49-2.72-4.43-4.14c0.08-1.72,2.41-4.13,4.25-4.71
		C131.83,161.1,133.9,163.39,136.77,165.24z"/>
	<path fill="#FFFFFF" d="M147.07,255.18c2.45,3.34,4.57,5.13,4.99,7.25c0.22,1.09-3.04,4.2-3.95,3.91c-1.91-0.6-4.09-2.6-4.66-4.48
		C143.06,260.55,145.17,258.49,147.07,255.18z"/>
	<path fill="#FFFFFF" d="M257.58,303.21c-1.87-2.99-4.06-5.04-3.66-6.18c0.63-1.8,2.95-4.06,4.64-4.13c1.41-0.06,4.16,2.78,4.1,4.25
		C262.59,298.82,260.08,300.4,257.58,303.21z"/>
	<path fill="#FFFFFF" d="M126.31,193.81c1.15,1.81,3.18,3.61,3.19,5.43c0.02,1.57-2.25,3.16-3.51,4.75
		c-1.65-1.43-4.33-2.67-4.66-4.36c-0.32-1.66,1.74-3.78,2.76-5.7C124.84,193.88,125.57,193.84,126.31,193.81z"/>
	<path fill="#FFFFFF" d="M235.82,88.68c2.39,2.9,4.99,4.74,4.78,6.16c-0.25,1.68-2.9,4.11-4.56,4.15c-1.51,0.04-3.84-2.49-4.35-4.29
		C231.37,93.53,233.69,91.63,235.82,88.68z"/>
	<path fill="#FFFFFF" d="M252.85,90.96c2.21,3.33,4.31,5.12,4.28,6.89c-0.02,1.36-2.94,3.95-4.14,3.73
		c-1.9-0.36-4.42-2.39-4.83-4.15C247.85,96.1,250.44,94.11,252.85,90.96z"/>
	<path fill="#FFFFFF" d="M268.23,96.47c2.34,2.78,4.86,4.46,4.84,6.12c-0.01,1.58-2.82,4.52-4.12,4.37
		c-1.78-0.2-4.07-2.51-4.65-4.37C263.94,101.39,266.27,99.37,268.23,96.47z"/>
	<path fill="#FFFFFF" d="M283.1,104.26c2.28,2.71,4.56,4.28,4.86,6.16c0.22,1.37-2.17,3.15-3.4,4.75c-1.89-1.54-4.36-2.77-5.42-4.76
		C278.7,109.57,281.16,107.16,283.1,104.26z"/>
	<path fill="#FFFFFF" d="M308.97,126.16c2.05,3.54,3.96,5.53,4.11,7.64c0.08,1.12-3.47,3.81-4.36,3.43
		c-1.83-0.79-3.76-3.03-4.12-4.95C304.36,130.96,306.71,129.17,308.97,126.16z"/>
	<path fill="#FFFFFF" d="M325.3,168.93c-1.98-3.44-4.11-5.48-3.88-7.21c0.21-1.62,2.92-2.91,4.53-4.35c1.33,1.79,3.46,3.47,3.73,5.4
		C329.87,164.16,327.58,165.89,325.3,168.93z"/>
	<path fill="#FFFFFF" d="M332.78,189.71c1.13,1.77,3.13,3.55,3.12,5.31c-0.01,1.63-2.19,3.23-3.42,4.85
		c-1.63-1.45-4.21-2.68-4.6-4.4c-0.36-1.61,1.62-3.74,2.57-5.64C331.23,189.79,332,189.75,332.78,189.71z"/>
	<path fill="#FFFFFF" d="M327.91,221.5c1.83,3.38,3.79,5.36,3.44,6.75c-0.48,1.89-2.73,3.33-4.23,4.96
		c-1.44-1.66-3.95-3.28-4.01-4.99C323.06,226.51,325.46,224.73,327.91,221.5z"/>
	<path fill="#FFFFFF" d="M131.79,225.66c1.86,3.43,3.73,5.37,3.67,7.24c-0.05,1.47-2.5,2.85-3.88,4.28c-1.52-1.8-3.76-3.41-4.3-5.47
		C126.97,230.53,129.46,228.64,131.79,225.66z"/>
	<path fill="#FFFFFF" d="M318.69,258.35c-2.97,2.15-4.67,4.29-6.53,4.44c-1.33,0.11-4.34-3.14-4.07-3.69
		c0.97-2.06,2.74-4.19,4.74-5.1C313.68,253.61,315.87,256.18,318.69,258.35z"/>
	<path fill="#FFFFFF" d="M165.79,274.5c-2.88,2.14-5,4.62-5.94,4.23c-2.06-0.85-3.52-3.15-5.22-4.86c1.49-1.37,3.06-3.9,4.47-3.81
		C160.98,270.16,162.72,272.32,165.79,274.5z"/>
	<path fill="#FFFFFF" d="M173.05,291.09c-2.36-2.93-4.83-4.67-4.81-6.38c0.01-1.49,2.98-4.25,4.38-4.09
		c1.71,0.19,3.91,2.61,4.45,4.48C177.41,286.28,175.08,288.22,173.05,291.09z"/>
	<path fill="#FFFFFF" d="M273.94,297.09c-2.22-2.75-4.66-4.56-4.39-5.73c0.43-1.86,2.52-4.31,4.22-4.58
		c1.36-0.22,4.37,2.33,4.48,3.82C278.39,292.24,276.07,294.09,273.94,297.09z"/>
	<path fill="#FFFFFF" d="M288.18,288.48c-2.1-2.79-4.55-4.74-4.22-5.89c0.54-1.91,2.69-4.21,4.52-4.59c1.19-0.25,4.22,2.6,4.26,4.12
		C292.77,283.83,290.38,285.6,288.18,288.48z"/>
	<path fill="#FFFFFF" d="M307.81,271.1c-3.07,2.24-4.88,4.57-6.6,4.5c-1.51-0.06-2.91-2.81-4.36-4.38c1.64-1.47,3.1-3.7,4.97-4.14
		C303.07,266.79,304.92,269.05,307.81,271.1z"/>
	<path fill="#FFFFFF" d="M144.74,248.09c-2.81,2.16-5.01,4.72-5.86,4.33c-2.01-0.93-3.38-3.25-5.01-5.01
		c1.47-1.35,3.04-3.86,4.39-3.76C140.12,243.8,141.82,245.95,144.74,248.09z"/>
	<path fill="#FFFFFF" d="M332.61,206.68c0.84,1.91,2.53,3.95,2.27,5.7c-0.24,1.57-2.61,2.82-4.05,4.21
		c-1.41-1.62-3.83-3.18-3.93-4.88c-0.1-1.67,2.16-3.47,3.39-5.22C331.07,206.55,331.84,206.62,332.61,206.68z"/>
	<path fill="#FFFFFF" d="M126.25,189.36c-2.05-3.44-4.13-5.38-3.8-6.74c0.46-1.89,2.72-3.34,4.2-4.98c1.4,1.63,3.78,3.18,3.93,4.92
		C130.73,184.19,128.51,186.02,126.25,189.36z"/>
	<path fill="#FFFFFF" d="M143.61,150.06c-3.22,2.23-5.02,4.21-7.11,4.59c-0.97,0.18-3.82-3.14-3.51-4.2
		c0.54-1.88,2.63-4.01,4.5-4.54C138.68,145.58,140.63,147.94,143.61,150.06z"/>
	<path fill="#FFFFFF" d="M324.76,147.36c-2.97,1.97-5.26,4.32-6.1,3.88c-1.93-1-3.55-3.21-4.4-5.29c-0.23-0.55,2.93-3.6,4.24-3.41
		C320.33,142.8,321.89,145.01,324.76,147.36z"/>
	<path fill="#FFFFFF" d="M186.86,286.3c2.32,2.84,4.63,4.45,4.78,6.25c0.12,1.41-2.79,4.51-3.72,4.28c-1.93-0.48-4.2-2.4-4.83-4.24
		C182.68,291.41,184.95,289.31,186.86,286.3z"/>
	<path fill="#FFFFFF" d="M219.19,88.78c2.34,2.92,4.79,4.73,4.52,5.93c-0.41,1.79-2.54,4.02-4.29,4.39
		c-1.2,0.26-4.18-2.27-4.25-3.65C215.09,93.72,217.18,91.89,219.19,88.78z"/>
	<path fill="#FFFFFF" d="M321.02,237.33c2.14,3.02,4.33,4.77,4.1,6.1c-0.33,1.89-2.44,3.47-3.79,5.18
		c-1.57-1.43-4.26-2.74-4.42-4.32C316.74,242.6,318.92,240.66,321.02,237.33z"/>
	<path fill="#FFFFFF" d="M297.27,114.07c2.07,3.52,3.94,5.45,4.12,7.52c0.09,1.08-3.34,3.73-4.22,3.37
		c-1.83-0.76-3.78-2.89-4.21-4.79C292.69,118.94,295.01,117.12,297.27,114.07z"/>
	<path fill="#FFFFFF" d="M248.66,300.69c-3.53,1.94-5.49,3.87-7.28,3.73c-1.37-0.11-3.61-2.96-3.46-4.39
		c0.15-1.44,2.7-3.55,4.31-3.66C243.75,296.27,245.42,298.39,248.66,300.69z"/>
	<path fill="#FFFFFF" d="M152.38,136.09c-3.17,2.16-4.96,4.3-6.73,4.29c-1.33-0.01-3.76-2.86-3.66-4.3c0.12-1.56,2.45-3.86,4.1-4.12
		C147.49,131.74,149.28,133.94,152.38,136.09z"/>
	<path fill="#C6D900" d="M196.63,120.17c0.16,5.87-4.79,11.01-10.72,11.14c-6.12,0.13-10.87-4.45-11.04-10.64
		c-0.16-6.04,4.57-11.07,10.54-11.2C191.3,109.34,196.48,114.27,196.63,120.17z"/>
	<path fill="#C6D900" d="M290.23,179.51c0.09,5.96-4.77,10.93-10.76,11c-6.14,0.07-10.9-4.55-10.96-10.66
		c-0.06-6.06,4.7-11.05,10.64-11.14C285.02,168.61,290.14,173.6,290.23,179.51z"/>
	<path fill="#C6D900" d="M216.14,238.76c6.03,0.11,10.66,4.96,10.62,11.13c-0.04,6.13-4.73,10.73-10.92,10.7
		c-6.02-0.02-10.84-4.95-10.76-10.99C205.15,243.72,210.31,238.66,216.14,238.76z"/>
</g>
</svg>
