<?xml version="1.0" encoding="utf-8"?>
<!-- Generator: Adobe Illustrator 25.4.1, SVG Export Plug-In . SVG Version: 6.00 Build 0)  -->
<svg version="1.1" baseProfile="tiny" id="Capa_1" xmlns="http://www.w3.org/2000/svg" xmlns:xlink="http://www.w3.org/1999/xlink"
	 x="0px" y="0px" viewBox="0 0 500 500" overflow="visible" xml:space="preserve">
<g>
	<g>
		<g>
			<path fill="#C6D900" d="M268.05,80.57c11.63,10.93,20.28,14.15,25.99,13.33c4.58-0.66,7.07-4.31,7.32-8.3
				c0.27-4.21-1.86-8.76-6.52-10.84C289.39,72.32,280.6,73.03,268.05,80.57L268.05,80.57z M294.96,100.39
				c-7.95,1.14-19.64-3.09-34.49-18.07l-2.81-2.83l3.32-2.21c16.63-11.05,28.8-11.97,36.53-8.51c7.43,3.33,10.81,10.56,10.39,17.23
				C307.46,92.9,303.07,99.23,294.96,100.39z"/>
		</g>
		<g>
			<path fill="#C6D900" d="M276.54,79.4c-1.16,0.04-2.06,1.01-2.02,2.17c0.04,1.16,1.01,2.06,2.17,2.02
				c4.07-0.16,7.84,0.06,11.3,0.65c3.41,0.58,6.49,1.53,9.23,2.85c1.04,0.5,2.29,0.06,2.79-0.99c0.5-1.04,0.06-2.29-0.99-2.79
				c-3.12-1.5-6.57-2.57-10.33-3.21C284.97,79.46,280.92,79.23,276.54,79.4z"/>
		</g>
		<g>
			<path fill="#C6D900" d="M339.11,83.78c-7.49,14.71-15.28,20.67-21.59,21.74c-6.61,1.12-11.62-2.71-13.68-7.97
				c-1.98-5.05-1.16-11.48,3.77-15.9c5.02-4.5,14.39-6.78,29.46-2.52l3.85,1.09L339.11,83.78L339.11,83.78z M316.44,99.06
				c4.05-0.68,9.23-4.75,14.86-14.61c-10.09-2.19-16.17-0.75-19.33,2.09c-2.66,2.39-3.1,5.88-2.02,8.64
				C310.95,97.72,313.33,99.58,316.44,99.06z"/>
		</g>
		<g>
			<path fill="#C6D900" d="M326.97,88.64c1.12-0.31,1.77-1.46,1.46-2.58c-0.31-1.12-1.46-1.77-2.58-1.46
				c-3.29,0.92-6.24,2.05-8.84,3.4c-2.64,1.37-4.95,2.99-6.92,4.86c-0.84,0.79-0.88,2.12-0.08,2.96c0.79,0.84,2.12,0.88,2.96,0.08
				c1.66-1.57,3.66-2.96,5.99-4.17C321.32,90.5,323.99,89.47,326.97,88.64z"/>
		</g>
		<g>
			<polygon fill="#C6D900" points="310.12,95.32 302.21,117.23 294.33,114.4 302.24,92.49 			"/>
		</g>
	</g>
	<path fill="#FFFFFF" d="M455.31,425.01c-0.06-0.12-0.12-0.24-0.18-0.36c-7.17-0.03-14.34-0.04-21.5,0.15
		c-4.82,0.13-6.4-1.04-6.37-6.15c0.22-40.4,0.12-80.8,0.13-121.2c0-1.81,0.18-3.63,0.29-5.52c1.15-0.2,1.86-0.4,2.57-0.43
		c16.43-0.75,16.33-0.74,15.84-16.99c-0.14-4.46-1.86-6.59-6.37-6.48c-3.87,0.09-7.75,0.02-11.85,0.02V136.21
		c4.43,0,8.34-0.06,12.25,0.02c3.92,0.08,5.9-1.6,5.89-5.66c-0.02-6.33,0-12.66,0-18.99h-8.44v0.95H160.66
		c-0.11-0.32-0.19-0.64-0.27-0.95h-8.07c-0.03,0-0.05,0-0.08,0c-0.08,6.42,0.04,12.84-0.03,19.26c-0.05,3.81,1.63,5.47,5.4,5.38
		c4.22-0.1,8.45-0.02,12.77-0.02v126.37c3.71,4.28,6.66,9.43,7.52,14.07c0.01,0.08,0.03,0.16,0.04,0.24h259.71v6.47H179
		c0.38,2.72,0.64,5.45,0.69,8.19h239.49v132.73H179.01V304.22c-0.2,2.89-0.57,5.81-1.14,8.78c-1.06,5.57-3.74,10.4-7.42,14.37v97.05
		l-31.96,0.27c-2.44,0-4.47,0-6.5,0c-15.9,0-31.8-0.09-47.69,0.07c-3.35,0.03-8.71-1.76-8.57,4.1c0.12,5.21,5.13,3.8,8.43,3.8
		c124.03,0.04,248.05,0.03,372.07,0.02v-6.05C455.93,426.09,455.6,425.56,455.31,425.01z M166.21,128.38
		c-1.83,0-3.66-0.16-5.72-0.25c-0.17-1.42-0.38-2.49-0.39-3.56c-0.01-1.07,0.17-2.15,0.29-3.51h276.67c1.88,6.7,1.48,7.33-4.89,7.33
		C343.51,128.39,254.86,128.39,166.21,128.38z M419.06,267.62H179.15V136.55h239.91V267.62z"/>
	<path fill="#FFFFFF" d="M244.32,360.23c-0.01,15.33-0.12,18.31,0.06,33.64c0.06,4.8-1.74,6.77-6.55,6.71
		c-11.96-0.15-23.93-0.15-35.89,0.01c-4.73,0.06-6.85-1.83-6.84-6.59c0.06-30.66,0.07-48.97,0.02-79.62c-0.01-4.69,1.8-6.7,6.7-6.6
		c11.96,0.24,23.93,0.29,35.89,0.01c5.35-0.13,6.75,2.15,6.69,7.03C244.21,329.95,244.32,345.09,244.32,360.23z M234.71,363.59
		c0.42-0.33,0.85-0.67,1.27-1c0-15.51,0-31.02,0-46.46c-10.98,0-21.53,0-32,0c0.38,0.41,0.38,18.37,0.38,18.37
		C203.24,334.49,230.32,358.87,234.71,363.59z M235.84,392.24c-0.05,0.62-28.81-27.71-30.94-30.16c-0.38,0.36-0.76,0.73-1.14,1.09
		c0,13.71,0,15.07,0,29.07C214.66,392.24,225.2,392.24,235.84,392.24z M205.07,343.83c-0.83,0.41-0.51,7.22,1.46,9.29
		c8.48,8.92,17.32,17.5,26.05,26.18c0.96,0.95,2.11,1.71,3.17,2.56c0.49-3.04,0.5-6.07-1-7.67
		C225.04,363.89,215,353.91,205.07,343.83z"/>
	<path fill="#FFFFFF" d="M405.94,202.63c0.01,14.38,0.01,28.76,0.01,43.15c0,9.48-0.01,9.49-9.2,9.5
		c-11.02,0.01-22.04-0.16-33.06,0.08c-4.77,0.11-6.95-1.66-6.95-6.41c0.03-30.82,0.02-61.64,0-92.46c0-4.33,1.69-6.51,6.35-6.45
		c12.33,0.16,24.66,0.14,36.98,0c4.38-0.05,5.94,1.87,5.91,6.08C405.87,171.62,405.93,187.12,405.94,202.63z M365.41,158.14
		c-0.84,8.88-1.41,16.47,6.47,22.76c8.13,6.49,14.97,14.58,22.41,21.94c0.95,0.94,2.05,1.72,3.25,2.71c0-16.16,0-31.73,0-47.4
		C386.65,158.14,376.25,158.14,365.41,158.14z M397.52,247.02c1.23-6.11,0.51-10.82-4.4-15.21c-8.45-7.56-16.17-15.95-24.22-23.96
		c-0.94-0.94-2.07-1.69-3.43-2.78c0,14.42,0,28.1,0,41.95C376.46,247.02,386.98,247.02,397.52,247.02z M396.62,224.6
		c0.83-0.52,1.66-1.04,2.49-1.56c-1.68-2.95-2.87-6.37-5.13-8.78c-9-9.6-18.32-18.9-27.53-28.3c-0.58,0.33-1.16,0.65-1.74,0.98
		c0.58,2.35,0.41,5.4,1.86,6.94C376.39,204.29,386.56,214.39,396.62,224.6z"/>
	<path fill="#FFFFFF" d="M301.95,202.17c0-14.19-0.01-28.39,0-42.58c0.01-9.49,0.02-9.5,9.22-9.5c11.02,0,22.04,0.19,33.05-0.1
		c5.21-0.13,6.89,1.98,6.87,6.94c-0.11,30.63-0.1,61.26-0.02,91.89c0.01,4.75-1.83,6.65-6.7,6.56c-11.95-0.23-23.91-0.23-35.86-0.02
		c-4.94,0.09-6.62-2.01-6.58-6.68c0.12-15.5,0.04-31,0.04-46.5C301.97,202.17,301.96,202.17,301.95,202.17z M310.32,158.09
		c-0.6,8.51-1.7,16.09,6.08,22.23c7.14,5.63,13.09,12.76,19.58,19.22c2.02,2.01,4.06,4,6.59,6.49c0-16.7,0-32.26,0-47.94
		C331.71,158.09,321.3,158.09,310.32,158.09z M342.67,247.04c0.84-9.75,0.83-9.74-5.21-15.78c-7.92-7.91-15.81-15.84-23.74-23.74
		c-0.93-0.93-2.04-1.67-3.37-2.74c0,14.46,0,28.19,0,42.26C321.27,247.04,331.81,247.04,342.67,247.04z M311.39,186.18
		c-0.8,0.48-1.6,0.96-2.4,1.43c1.52,2.83,2.52,6.15,4.64,8.42c9.12,9.79,18.57,19.27,27.9,28.87c0.62-0.39,1.24-0.78,1.86-1.17
		c-0.58-2.34-0.41-5.4-1.85-6.92C331.68,206.42,321.48,196.35,311.39,186.18z"/>
	<path fill="#FFFFFF" d="M295.98,202.82c0,15.15-0.15,30.3,0.08,45.45c0.08,5.38-1.87,7.26-7.24,7.12
		c-11.78-0.3-23.57-0.23-35.35-0.04c-4.58,0.07-6.5-1.74-6.49-6.24c0.06-30.86,0.09-61.73,0.03-92.59
		c-0.01-4.78,1.89-6.61,6.75-6.52c11.78,0.24,23.57,0.22,35.35-0.01c5.01-0.1,7.02,1.57,6.94,6.8c-0.25,15.33-0.09,30.67-0.09,46.01
		C295.97,202.82,295.97,202.82,295.98,202.82z M287.72,158.19c-10.85,0-21.37,0-33.55,0c1.13,6.26,0.33,13.5,3.56,17.48
		c8.3,10.22,18.37,18.99,27.77,28.31c0.54,0.54,1.38,0.78,2.22,1.24C287.72,189.34,287.72,173.94,287.72,158.19z M255.49,204.33
		c0,15.04,0,28.72,0,42.69c10.89,0,21.41,0,33.05,0c-0.67-4.15,0.02-9-2.08-11.31C276.86,225.16,266.47,215.31,255.49,204.33z
		 M286.92,224.24c0.73-0.38,1.47-0.76,2.2-1.14c-1.62-2.98-2.71-6.45-4.95-8.85c-8.99-9.63-18.33-18.94-27.54-28.36
		c-0.58,0.32-1.17,0.65-1.75,0.97c0.54,2.32,0.34,5.36,1.75,6.84C266.54,204.07,276.78,214.1,286.92,224.24z"/>
	<path fill="#FFFFFF" d="M240.99,202.67c0,15.14-0.15,30.29,0.08,45.43c0.08,5.24-1.52,7.43-7.05,7.28
		c-11.58-0.31-23.18-0.26-34.77,0c-4.97,0.11-7.23-1.56-7.22-6.69c0.09-30.66,0.08-61.32,0.03-91.97c-0.01-4.57,1.59-6.81,6.6-6.71
		c11.96,0.25,23.93,0.23,35.89,0.01c4.94-0.09,6.53,1.91,6.48,6.67c-0.19,15.33-0.07,30.66-0.07,45.99
		C240.98,202.67,240.98,202.67,240.99,202.67z M231.33,205.93c0.43-0.38,0.85-0.76,1.28-1.14c0-15.53,0-31.05,0-46.48
		c-11.04,0-21.55,0-32.35,0c0,2.68-0.15,4.92,0.04,7.13c0.28,3.24-0.36,7.51,1.43,9.51C211.25,185.59,221.4,195.66,231.33,205.93z
		 M200.61,246.96c11.05,0,21.57,0,32.94,0c-0.58-4.09,0.2-8.82-1.8-11.02c-9.72-10.64-20.19-20.6-31.14-31.55
		C200.61,219.21,200.61,232.87,200.61,246.96z M231.96,224.38c0.63-0.35,1.27-0.7,1.9-1.05c-1.17-2.74-1.72-6.07-3.63-8.12
		c-6.85-7.36-14.26-14.21-21.26-21.44c-2.52-2.6-4.51-5.73-6.74-8.61c-0.74,0.57-1.49,1.13-2.23,1.7c0.44,2.26,0.12,5.25,1.46,6.66
		C211.43,203.98,221.75,214.13,231.96,224.38z"/>
	<path fill="#C6D900" d="M95.31,426.72l-0.01,3.53c0,1.52,1.23,2.75,2.75,2.75c2.97,0,7.46,0,8.75,0c9.82,0,19.64,0,29.46-0.01
		c1.51,0,2.94-1.1,3.01-2.61c0.05-0.91,0-2.04,0.05-2.82c0.11-1.72-1.07-3.24-2.8-3.24c-3.34,0-6.68,0-10.02,0h-3.41
		c-1.57,0-2.84-1.27-2.84-2.84v-49.91c0-1.42,1.04-2.61,2.44-2.82c50.77-7.7,68.41-51.61,64.23-81.5
		c-4.89-34.94-34.77-61.83-70.1-62.5c-35.41-0.67-66.32,25.11-72.09,60.8c-2.74,16.92,0.23,33.16,9.27,47.95
		c12.53,20.49,31.09,31.58,54.23,34.84c1.4,0.2,2.45,1.39,2.45,2.81v49.97c0,1.57-1.27,2.84-2.84,2.84l0,0
		c-0.88,0-6.39,0.01-9.81,0.02C96.54,423.98,95.31,425.21,95.31,426.72z M52.75,301.41c-2.17-36.71,25.5-66.91,61.98-67.66
		c35.25-0.72,64.38,28.43,63.96,64c-0.37,31.41-27.35,60.7-55.77,61.12c-1.42,0.02-2.63-1.05-2.81-2.46
		c-0.74-5.89,0.02-11.18,5.55-15.68c5.55-4.51,10.25-10.04,15.35-15.1c2.23-2.22,4.09-5.07,0.94-7.17
		c-1.49-0.99-5.43-0.14-7.07,1.26c-3.47,2.95-6.62,6.27-10.04,9.86c-1.77,1.86-4.92,0.6-4.9-1.97c0.01-2.92,0.91-5.41,3.65-7.68
		c3.31-2.73,6.47-5.8,8.99-9.24c0.68-0.92,0.63-2.38,0.52-3.88c-0.1-1.44-1.28-2.58-2.72-2.63c-1.27-0.05-2.51-0.02-3.5,0.49
		c-0.76,0.4-1.46,0.92-2.18,1.54c-1.84,1.62-4.74,0.33-4.73-2.12c0.01-3.42,0.01-6.54-0.04-9.65c-0.05-3.4,0.69-7.86-4.46-7.78
		c-4.45,0.06-4.38,4.05-4.43,7.42c-0.01,0.78,0.23,9.13,0.27,8.8c0,0-3.03-4-4.15-4.77c-1.28-0.87-2.99-0.9-4.24,0.03
		c-0.9,0.67-0.78,2.88,0.53,4.45c1.26,1.51,1.3,1.52,2.49,2.79c1.8,1.92,3.54,3.75,4.47,5.92c1.23,2.87-2.43,5.32-4.63,3.1
		c-2.13-2.14-4.26-4.2-6.61-5.96c-1.03-0.77-2.47-0.98-3.99-1.09c-1.74-0.13-3.18,1.32-3.06,3.06c0.11,1.56,0.32,3.04,1.14,4.02
		c4.05,4.87,8.59,9.42,13.4,13.55c2.73,2.34,4.12,4.86,4.29,8.24c0.14,2.71-3.25,4.03-5.01,1.97c-2.14-2.52-4.12-4.78-6.41-6.68
		c-0.98-0.81-2.45-1.03-4.01-1.14c-1.75-0.13-3.21,1.34-3.06,3.09c0.13,1.55,0.36,3.03,1.18,3.99c4.51,5.3,9.77,9.94,14.55,15.02
		c0.51,0.54,0.94,1.16,1.35,1.84c1.17,1.95-0.28,4.43-2.55,4.35C80.66,357.67,54.45,330.11,52.75,301.41z"/>
	<path fill="#FFFFFF" d="M334.06,427.09h-6.86V322.71c0-3.98-3.24-7.23-7.23-7.23h-38.73c-3.99,0-7.23,3.24-7.23,7.23v104.39h-6.86
		V322.71c0-7.77,6.32-14.09,14.09-14.09h38.73c7.77,0,14.09,6.32,14.09,14.09V427.09z"/>
</g>
</svg>
