<?xml version="1.0" encoding="utf-8"?>
<!-- Generator: Adobe Illustrator 25.4.1, SVG Export Plug-In . SVG Version: 6.00 Build 0)  -->
<svg version="1.1" baseProfile="tiny" id="Capa_1" xmlns="http://www.w3.org/2000/svg" xmlns:xlink="http://www.w3.org/1999/xlink"
	 x="0px" y="0px" viewBox="0 0 500 500" overflow="visible" xml:space="preserve">
<g>
	<path fill="#FFFFFF" d="M391.16,292.29c15.4,7.03,29.31,13.37,43.22,19.73c1.3,0.59,3.06,0.93,3.73,1.96
		c0.99,1.52,2.08,3.95,1.5,5.25c-0.57,1.27-3.25,2.31-4.92,2.19c-2.12-0.15-4.17-1.51-6.21-2.44
		c-14.52-6.61-28.98-13.35-43.59-19.73c-2.29-1-5.72-1.35-7.9-0.37c-37.48,16.83-74.85,33.92-112.24,50.96
		c-0.91,0.42-1.76,0.97-3.73,2.07c5.68,2.6,10.56,4.84,15.44,7.06c25.86,11.77,51.69,23.61,77.66,35.15c2.37,1.05,6,1.07,8.37,0.02
		c21.7-9.56,43.25-19.46,64.84-29.27c0.93-0.42,1.82-0.98,2.78-1.3c3.25-1.09,7.17-4.63,9.55,0.34c2.36,4.95-2.49,6.07-5.71,7.55
		c-17.09,7.85-34.22,15.62-51.33,23.43c-4.08,1.86-8.15,3.75-13.37,6.15c7.48,3.5,14.01,6.62,20.6,9.62
		c14.51,6.62,29.08,13.11,43.55,19.8c3.28,1.51,8.72,2.42,6.2,7.79c-2.31,4.93-6.34,1.7-9.52,0.26
		c-22.17-10.02-44.33-20.04-66.41-30.25c-3.6-1.66-6.46-1.96-10.28-0.17c-21.66,10.16-43.49,19.95-65.27,29.87
		c-1.49,0.68-3.03,1.88-4.5,1.81c-2.27-0.1-4.51-1.09-6.76-1.7c1.11-2.05,1.71-5.16,3.42-6c11.93-5.85,24.09-11.23,36.18-16.75
		c9.97-4.55,19.95-9.09,31.28-14.26c-15.02-6.82-28.66-13.12-42.43-19.12c-1.32-0.57-3.56,0.41-5.16,1.14
		c-24.58,11.14-49.12,22.37-73.68,33.57c-16.35,7.45-32.63,15.05-49.13,22.15c-2.77,1.19-6.92,1.26-9.66,0.07
		c-14.61-6.36-29.04-13.15-43.39-20.09c-4.26-2.06-7.79-2.12-12.09-0.03c-14.33,6.98-28.84,13.56-43.29,20.29
		c-3,1.4-6.47,3.39-8.49-0.76c-2.29-4.68,1.98-5.89,5.07-7.28c12.11-5.43,24.27-10.76,36.4-16.16c1.65-0.73,3.22-1.65,6.11-3.15
		c-7.13-3.37-13.24-6.33-19.4-9.16c-7.95-3.66-16.07-6.98-23.85-10.99c-1.91-0.98-2.75-4.03-4.09-6.13
		c2.31-0.35,5.02-1.67,6.85-0.89c15.2,6.44,30.3,13.13,45.29,20.06c3.9,1.8,7.1,1.67,10.93-0.07c29.02-13.17,58.16-26.1,87.19-39.26
		c9.09-4.12,17.98-8.72,27.6-13.41c-1.93-1.1-3.34-2.05-4.87-2.75c-28.26-12.9-56.63-25.59-84.74-38.81
		c-5.49-2.58-9.7-2.12-14.86,0.29c-21.85,10.22-43.86,20.1-65.8,30.13c-2.94,1.34-6.04,2.76-7.91-1.08
		c-2.12-4.34,1.49-5.67,4.51-7.05c14.88-6.79,29.76-13.56,44.64-20.35c6.83-3.12,13.65-6.26,21.49-9.85
		c-16.93-7.74-32.88-15.04-48.83-22.33c-5.39-2.46-10.84-4.79-16.18-7.36c-3.13-1.51-8.06-2.5-5.58-7.57c2.22-4.54,5.89-1.85,9-0.44
		c22.52,10.24,44.98,20.61,67.63,30.56c2.71,1.19,6.84,1.11,9.58-0.08c17.97-7.82,35.73-16.11,53.74-24.33
		c-4.85-11.92-9.88-23.3-14.13-34.96c-6.67-18.31-12.04-36.94-11.38-56.78c1.19-35.99,29.25-66.83,65.05-71.32
		c47.73-5.98,87.64,31.17,85.2,79.14c-1.06,20.98-7.85,40.41-15.28,59.72c-0.86,2.24-1.79,4.46-2.88,7.19
		c6.32,2.94,12.12,5.91,18.15,8.26c1.49,0.58,3.87-0.56,5.64-1.36c33.16-15,66.28-30.07,99.41-45.13c0.74-0.34,1.52-1.04,2.22-0.97
		c2.51,0.28,4.99,0.82,7.48,1.26c-1.25,2.17-1.97,5.42-3.83,6.34c-11.17,5.55-22.59,10.57-33.94,15.75
		c-20.27,9.25-40.55,18.47-60.82,27.72c-0.89,0.41-1.73,0.93-3.75,2.03c4.6,2.17,8.31,3.97,12.06,5.68
		c8.36,3.82,16.87,7.36,25.07,11.5c4.28,2.16,7.79,1.91,12.02-0.09c14.6-6.91,29.37-13.45,44.07-20.14c3.11-1.42,6.8-4.12,8.94,0.5
		c2.31,4.99-2.46,6.1-5.68,7.58C420.27,279.09,406.53,285.3,391.16,292.29z M249.21,340.86c1.59-1.67,2.09-2.05,2.4-2.54
		c20.01-31.89,38.33-64.7,51.97-99.88c7.02-18.12,12.98-36.6,12.91-56.41c-0.09-28.05-17.81-53.14-44.16-62.43
		c-26.55-9.36-55.96-1.17-73.7,20.55c-16.15,19.79-17.9,42.23-12.22,66.08c6.63,27.85,18.2,53.75,31.54,78.88
		C227.79,303.65,238.46,321.76,249.21,340.86z M293.43,376.39c-13.55-6.2-25.9-12.1-38.49-17.41c-2.77-1.17-6.87-1.27-9.61-0.1
		c-18.42,7.86-36.68,16.1-54.9,24.41c-16.16,7.37-32.2,15.01-48.32,22.46c-4.15,1.92-8.41,3.6-14.18,6.05
		c15.42,6.81,29.15,12.95,42.97,18.87c1.24,0.53,3.2-0.01,4.6-0.59c8.85-3.72,17.69-7.46,26.42-11.45
		c21.18-9.69,42.29-19.52,63.43-29.29C274.36,385.18,283.39,381.02,293.43,376.39z M369.94,292.32
		c-23.01-10.47-44.62-20.31-65.66-29.89c-14.49,26.58-28.67,52.59-43.36,79.53C297.19,325.45,332.74,309.26,369.94,292.32z
		 M239.75,342.23c-12.32-21.87-23.95-42.53-35.71-63.42c-17.04,7.79-33.74,15.42-51.68,23.62
		C182.14,316,210.43,328.88,239.75,342.23z"/>
	<path fill="#FFFFFF" d="M205.16,66.13c1.08,1.22,2.79,2.44,3.52,4.09c3.62,8.21,7.22,16.44,10.25,24.87
		c0.14,0.38,0.16,0.8,0.11,1.24c-0.38,3.32-4.45,4.94-7.07,2.88c-0.38-0.3-0.68-0.63-0.86-1.02c-3.9-8.29-7.19-16.87-10.66-25.36
		C198.85,68.93,200.84,67.15,205.16,66.13z"/>
	<path fill="#FFFFFF" d="M300.31,71.1c-0.84,2.06-1.67,4.13-2.52,6.18c-2.95,7.15-5.67,14.41-9.03,21.36
		c-0.16,0.34-0.43,0.63-0.76,0.88c-2.57,1.98-6.52,0.45-7.09-2.75c-0.07-0.41-0.07-0.79,0.06-1.12c3.29-8.97,7.02-17.79,10.99-26.49
		c0.61-1.34,3.28-3.07,4.86-2.47C299.66,67.8,301.05,70.27,300.31,71.1z"/>
	<path fill="#FFFFFF" d="M333.18,92.55c1.11-0.48,2.4-0.27,3.41,0.39c0.7,0.46,1.32,0.94,1.48,1.55c0.43,1.55,0.51,4.01-0.41,4.99
		c-6.71,7.11-13.59,14.08-20.75,20.72c-1.14,1.06-4.38,0.93-5.92,0.06c-0.93-0.53-1.35-4.38-0.48-5.3
		c7.13-7.54,14.6-14.75,22.01-22.01C332.71,92.78,332.93,92.66,333.18,92.55z"/>
	<path fill="#FFFFFF" d="M161.75,94.6c0.4-2.24,3.09-3.23,5.03-2.04c1.42,0.87,2.37,1.46,3.15,2.23
		c6.08,6.01,12.24,11.96,17.88,18.36c0.69,0.78,0.96,1.92,1.1,3.18c0.25,2.15-1.53,3.97-3.69,3.76c-1.29-0.12-2.46-0.37-3.23-1.06
		c-6.52-5.82-12.64-12.11-18.65-18.48c-1.19-1.26-1.65-3.61-1.63-5.45C161.7,94.93,161.72,94.76,161.75,94.6z"/>
	<path fill="#FFFFFF" d="M245.78,75.91c0-4.48-0.39-9.02,0.18-13.43c0.06-0.47,0.26-0.93,0.54-1.37c1.56-2.45,5.15-2.69,7.05-0.49
		c0.4,0.46,0.66,0.92,0.68,1.39c0.42,9.56,0.42,19.16-0.01,28.71c-0.03,0.61-0.48,1.2-1.11,1.78c-1.99,1.82-5.24,1.55-6.71-0.72
		c-0.26-0.4-0.43-0.8-0.47-1.22c-0.51-4.84-0.18-9.76-0.18-14.66C245.76,75.91,245.77,75.91,245.78,75.91z"/>
	<path fill="#C6D900" d="M249.81,227.21c-24.85-0.02-44.79-20.04-44.75-44.93c0.03-24.8,20.12-44.84,44.91-44.82
		c25.11,0.02,45.3,20.28,45.16,45.3C294.99,207.42,274.8,227.23,249.81,227.21z M213.96,182.21c-0.07,20.27,15.86,36.3,36.09,36.34
		c19.79,0.04,35.97-15.92,36.22-35.73c0.25-19.99-15.95-36.56-35.93-36.76C230.36,145.87,214.03,162.1,213.96,182.21z"/>
</g>
</svg>
