<?xml version="1.0" encoding="utf-8"?>
<!-- Generator: Adobe Illustrator 25.4.1, SVG Export Plug-In . SVG Version: 6.00 Build 0)  -->
<svg version="1.1" baseProfile="tiny" id="Capa_1" xmlns="http://www.w3.org/2000/svg" xmlns:xlink="http://www.w3.org/1999/xlink"
	 x="0px" y="0px" viewBox="0 0 500 500" overflow="visible" xml:space="preserve">
<g>
	<path fill="#C6D900" d="M335.66,255.43c0,23.12-5.14,49.14-14.7,74.28c-0.75,1.96-2.87,4.89-4.17,4.8
		c-1.97-0.13-4.5-2.13-5.57-4.02c-19.08-33.68-47.52-56.21-82.95-70.75c-14.31-5.87-28.33-12.25-39.74-23.42
		c-28.39-27.8-32.97-71.22-10.14-100.59c28.11-36.17,81.95-38.19,112.96-4.24C320.34,163.23,336.95,208.14,335.66,255.43z
		 M295.01,241.75c8.44,22.58,16.57,44.33,24.44,65.41c-0.09,0.26,0.27-0.6,0.51-1.49c5.53-20.39,8.05-41.14,7.18-62.25
		c-1.57-37.98-13.34-72.2-37.92-101.62c-17.42-20.85-39.37-29.8-66.34-24.6c-11.25,2.17-21.27,7.19-30.02,15.64
		c4.44,3.04,8.15,5.94,12.23,8.16c1.34,0.73,3.95,0.22,5.46-0.64c5.27-2.99,10.24-6.51,15.47-9.58c2.55-1.5,5.76-2.86,7.59,0.81
		c1.75,3.51-0.9,5.16-3.7,6.73c-5.22,2.92-10.26,6.14-16.04,9.62c4.49,3.74,8.03,6.69,11.57,9.64c1.49-1.04,2.43-1.73,3.4-2.37
		c10.8-7.04,22.37-12.2,35.32-13.43c0.29-0.03,0.58,0.01,0.88,0.09c2.76,0.74,3.58,4.26,1.75,6.45c-0.46,0.55-0.93,1.07-1.43,1.57
		c-0.55,0.54-1.9,0.19-2.86,0.38c-11,2.18-21.21,6.11-30.03,13.02c4.02,4.22,7.63,8,10.83,11.36c7.08-3.14,13.53-6.49,20.33-8.87
		c5.31-1.86,11-2.88,16.6-3.52c0.44-0.05,0.9,0.12,1.37,0.42c2.49,1.57,2.61,5.27,0.27,7.05c-0.2,0.15-0.41,0.29-0.63,0.41
		c-1.62,0.89-3.88,0.52-5.71,1.13c-8.59,2.85-17.13,5.84-26.8,9.17c4.68,5.49,8.03,9.43,10.52,12.35
		c9.91-3.39,18.72-6.57,27.65-9.36c2.88-0.9,6.82-1.74,7.81,2.57c1,4.35-2.83,4.62-5.87,5.58c-7.72,2.43-15.35,5.17-23.91,8.08
		c4.22,5.65,7.44,9.97,10.4,13.93c6.43-2.38,12.26-4.63,18.16-6.68c2.91-1.01,6.48-1.54,6.94,2.48c0.19,1.64-2.52,4.38-4.52,5.35
		c-4.85,2.35-10.06,3.95-15.66,6.05c3.31,5.24,6.09,9.63,8.87,14.03c2.9-1.11,5.22-2.57,7.63-2.74c0.02,0,0.04,0,0.06,0
		c3.6-0.21,5.75,4.26,3.38,6.97c-0.16,0.18-0.33,0.36-0.51,0.52C298.19,240.93,295.88,241.37,295.01,241.75z M308.98,309.67
		c1.49-9.22-16.37-55.37-23.83-62.73c-1.89,1.29-3.65,3.14-5.79,3.79c-0.04,0.01-0.08,0.02-0.12,0.03c-3.81,1.08-6.97-3.5-4.56-6.64
		c0.01-0.02,0.03-0.04,0.04-0.05c1.61-2.06,4.25-3.31,6.83-5.2c-2.81-4.43-5.48-8.62-8.64-13.61c-4.57,4.19-8.69,7.76-12.55,11.58
		c-2.28,2.26-4.45,5.43-7.74,2.45c-3.12-2.82-0.93-5.74,1.45-8.03c4.6-4.44,9.29-8.77,14.09-13.29c-3.37-4.36-6.54-8.46-10.61-13.72
		c-6.25,7.47-11.98,14.1-17.42,20.96c-1.92,2.42-3.52,5.35-6.95,3.38c-3.45-1.98-2.13-4.96-0.41-7.61c0.85-1.32,1.56-2.77,2.58-3.93
		c5.53-6.29,11.15-12.51,17.09-19.15c-3.02-3.5-6.28-7.28-9.78-11.33c-9.3,7.63-16.1,16.55-20.8,27.12
		c-1.31,2.94-2.77,6.38-6.77,4.51c-4.07-1.91-2.36-5.51-0.78-8.11c4.25-7.01,8.67-13.93,13.42-20.6c2.43-3.41,5.73-6.19,8.23-8.82
		c-3.66-4.22-6.97-8.04-10.34-11.91c-1.39,1.19-2.33,1.7-2.84,2.48c-5.65,8.64-11.19,17.35-16.89,25.95
		c-1.02,1.54-2.52,3.17-4.16,3.7c-1.53,0.5-3.12-0.35-3.57-1.89c-0.5-1.67-0.4-4.03,0.45-5.52c5.98-10.42,12.21-20.69,18.72-31.6
		c-2.34-1.91-5.74-4.68-9.9-8.08c-3.76,5.59-7.17,10.55-10.44,15.6c-1.69,2.61-3.61,5.6-6.75,2.96c-1.3-1.09-1.53-5.16-0.55-6.93
		c3.19-5.75,7.16-11.06,11.09-16.93c-4.71-3.16-9.35-6.27-13.91-9.33c-13.43,15.08-18.11,36.45-12.32,56.77
		c7.08,24.85,23.09,41.73,46.8,51.72c21.53,9.07,43.08,18.34,60.6,34.34C291.58,290.77,300.22,300.63,308.98,309.67z"/>
	<path fill="#FFFFFF" d="M317.58,386.49c0.07,36.43-31.02,62.85-66.78,55.55c-23.51-4.8-39.08-22.14-43.74-50.11
		c-2.2-13.16,1.07-25.36,5.27-37.37c9.62-27.53,11.15-55.08,1.85-83c-0.63-1.89-0.4-4.92,0.77-6.29c0.88-1.04,4.14-0.92,5.91-0.22
		c42.94,17.16,75.54,45,91.31,89.73c2.39,6.77,3.45,14.05,4.77,21.16C317.58,379.37,317.4,382.96,317.58,386.49z M270.39,401.79v5.4
		c0,2,1.97,3.41,3.86,2.77c3.26-1.1,6.2-2.1,9.22-2.71c0.84-0.17,1.77,0.1,2.72,0.49c1.48,0.59,2.19,2.29,1.6,3.77
		c-0.41,1.02-0.88,1.92-1.61,2.27c-4.19,2.02-8.78,3.2-13.13,4.92c-1.4,0.56-3.42,1.62-3.64,2.74c-0.57,2.9-0.78,5.88-1.03,9.15
		c-0.14,1.88,1.51,3.41,3.38,3.11c1.49-0.23,2.86-0.48,4.16-0.92c22.58-7.62,38.8-28.56,33.12-57.91
		c-6.07-31.36-22.26-56.58-46.86-76.47c-5.19-4.2-10.76-7.93-16.62-11.83c-2.52-1.68-5.62,1.1-4.22,3.79
		c5.92,11.39,11.52,22.15,17.16,33.01c0.72,1.39,2.4,1.96,3.82,1.31c1.19-0.54,2.44-1.04,3.72-1.14c1.06-0.09,2.15,0.25,3.25,0.66
		c1.47,0.55,2.24,2.16,1.76,3.65c-0.38,1.19-0.83,2.3-1.65,2.94c-1.57,1.25-3.55,2-5.61,2.8c-1.4,0.54-2.16,2.06-1.76,3.5
		c0.67,2.43,1.32,4.82,2.03,7.4c0.49,1.8,2.53,2.69,4.18,1.82c3.89-2.05,7.39-3.96,11.09-5.35c1.03-0.38,2.29-0.14,3.59,0.21
		c1.6,0.43,2.52,2.09,2.05,3.68c-0.39,1.34-0.85,2.58-1.73,3.12c-4.13,2.54-8.72,4.45-13.31,6.1c-3.01,1.08-4.06,2.57-3.36,5.63
		c0.5,2.2,0.9,4.43,1.35,6.98c0.33,1.83,2.26,2.9,3.98,2.21c4.9-1.98,9.44-3.9,14.13-5.31c2.07-0.62,5.83-0.28,6.82,1.08
		c2.3,3.16-0.84,4.83-3.41,5.92c-5.93,2.52-11.9,4.91-17.97,7.38c-1.21,0.49-1.95,1.73-1.81,3.03c0.21,1.98,0.43,3.98,0.67,6.18
		c0.2,1.86,2.09,3.06,3.86,2.46c5.17-1.77,10.01-3.36,14.72-5.28c3.12-1.28,6.27-2.84,8.06,1c1.89,4.06-1.74,5.55-4.67,6.64
		c-6.48,2.43-13.03,4.65-19.95,7.06C271.18,399.43,270.39,400.54,270.39,401.79z M248.8,324.12c-4.04-10.58-8.81-20.2-14.82-29.04
		c-1.7-2.5-5.6-1.06-5.32,1.95c1.14,12.07,0.66,24.05-2.16,35.88c-2.77,11.59-6.81,22.87-10.18,34.32
		c-6.55,22.26,0.87,45.55,18.77,58.82c6.35,4.71,13.3,7.77,21.55,8.32c1.57,0.11,2.94-1.07,3.1-2.64c0.28-2.85,0.56-5.61,0.83-8.34
		c0.16-1.57-0.96-2.99-2.53-3.19c-4.91-0.66-9.5-1.12-13.88-2.34c-1.09-0.3-1.98-1.3-2.84-2.45c-1.11-1.49-0.57-3.64,1.12-4.41
		c1.22-0.56,2.45-1.01,3.68-1.02c2.39-0.03,4.78,0.43,7.18,0.88c4.94,0.93,8.98-2.43,8.99-7.45c0-0.04,0-0.07,0-0.11
		c0-1.49-1.13-2.75-2.61-2.91c-8.66-0.95-16.57-1.8-24.48-2.74c-3.12-0.37-6.26-1.55-5.47-5.37c0.8-3.85,4.21-3.29,7.23-2.85
		c6.2,0.89,12.39,1.84,18.62,2.46c3.56,0.35,7.13,0.62,6.58-5.2c-0.75-7.96-0.66-7.85-7.33-7.98c-7.57-0.15-15.15-0.85-22.64-1.92
		c-0.87-0.12-1.61-1.13-2.33-2.29c-0.87-1.39-0.45-3.23,0.96-4.07c1.09-0.65,2.19-1.23,3.36-1.5c1.56-0.36,3.4,0.78,5.15,0.94
		c5.7,0.54,11.41,0.99,17.79,1.51c1.94,0.16,3.5-1.59,3.11-3.5c-0.55-2.74-1.01-4.99-1.39-6.85c-0.25-1.25-1.3-2.19-2.57-2.32
		c-7.18-0.73-13.36-1.21-19.43-2.27c-0.86-0.15-1.59-1.02-2.3-2.03c-0.94-1.35-0.58-3.22,0.79-4.13c1.05-0.69,2.11-1.28,3.18-1.3
		c4.6-0.1,9.21,0.25,13.9,0.56c1.85,0.12,3.34-1.49,3.09-3.32c-1.22-9.14-2.22-9.16-11.9-9.33c-0.39-0.01-0.91,0.14-1.16-0.05
		c-0.87-0.69-1.73-1.4-2.58-2.11c-1.26-1.06-1.41-2.96-0.31-4.19c0.81-0.91,1.65-1.72,2.66-2.09c1.07-0.39,2.28-0.42,3.68-0.36
		C248.02,328.18,249.55,326.09,248.8,324.12z"/>
	<path fill="#FFFFFF" d="M194.32,98.31c-0.35,9.5-3.9,18.31-14.2,22.69c-10.41,4.43-19.7,1.36-27.56-6
		c-8.88-8.32-12.63-18.7-10.58-30.86c2.91-17.24,20.24-25.34,35.38-16.61C187.76,73.51,194.4,85.17,194.32,98.31z M185.93,95.35
		c-0.41-8.64-4.88-16.67-14.35-21.29c-9.71-4.74-19.88,0.89-21.41,11.6c-1.34,9.4,1.54,17.4,8.64,23.7
		c5.33,4.73,11.52,6.85,18.36,3.72C183.85,110.02,185.91,104.06,185.93,95.35z"/>
	<path fill="#FFFFFF" d="M196.98,79.47c-0.81-2.49-1-5.16-0.34-7.69c2.05-7.86,6.96-13.25,14.15-14.67
		c8.36-1.65,15.64,2.39,18.72,12.16c1.87,5.92,2.5,12.69,1.76,18.85c-0.83,6.85-5.87,11.38-13.02,12.59
		c-7.17,1.21-13.06-1.34-16.28-7.79C199.84,88.67,198.47,84.04,196.98,79.47z M205.86,70.98c-1.11,2.84-1.07,6-0.17,8.91
		c0.93,2.98,1.83,5.98,3.48,8.48c1.41,2.13,5.19,4.17,7.53,3.8c2.45-0.38,5.93-3.45,6.3-5.77c0.71-4.42,0.14-9.32-1.04-13.7
		c-1.2-4.44-4.01-8.6-9.7-7.3C208.8,66.19,206.94,68.23,205.86,70.98z"/>
	<path fill="#FFFFFF" d="M268.35,88.6c-2.45,9.14-8.61,14.16-16.51,13.66c-7.09-0.44-13.63-6.8-13.82-15.67
		c-0.13-5.74,1.29-12.22,4.12-17.16c5.74-10.01,18.51-9.48,24.29,0.53C271.02,80.1,268.94,86.39,268.35,88.6z M259.28,87.23
		c2.26-3.76,2.63-8.47,0.64-12.37c-1-1.96-2.43-3.37-5.1-3.69c-5.43-0.65-7.12,3.9-8.13,8.25c-1.09,4.74-1.14,9.57,2.93,12.96
		c1.29,1.07,4.98,1.5,5.68,0.66C256.78,91.24,258.06,89.26,259.28,87.23z"/>
	<path fill="#FFFFFF" d="M303.59,96.34c-0.14,11.9-7.14,19.96-17.13,19.71c-8.76-0.22-14.99-7.38-14.79-17
		c0.23-11.27,7.43-19.52,16.98-19.44C297.51,79.68,303.7,86.6,303.59,96.34z M295.28,96.46c0.13-4.86-2.76-8.46-6.84-8.53
		c-4.48-0.08-8.42,5.28-8.42,11.63c0,4.45,1.91,7.64,6.63,8.15C291.23,108.2,295.11,103,295.28,96.46z"/>
	<path fill="#FFFFFF" d="M299.78,123.3c-0.07-9.27,7.43-17.6,16.02-17.82c7.48-0.19,13.23,5.6,13.3,13.39
		c0.08,9.2-8.01,17.83-16.77,17.9C305.27,136.82,299.83,130.99,299.78,123.3z M308.1,124.67c0.92,0.72,2.48,2.88,4.38,3.25
		c3.79,0.73,8.76-4.57,8.09-8.83c-0.31-1.93-2.51-4.56-4.33-5.03C312.66,113.14,308.08,118.66,308.1,124.67z"/>
	<path fill="#FFFFFF" d="M128.35,330.41c-1.91,1.17-3.76,3.09-5.75,3.25c-1.28,0.1-2.77-2.37-4.17-3.69
		c1.46-1.47,2.75-3.83,4.44-4.15c1.59-0.3,3.58,1.54,5.4,2.44C128.29,328.98,128.32,329.69,128.35,330.41z"/>
	<path fill="#FFFFFF" d="M413.74,146.36c-2.97,2.07-4.65,4.12-6.41,4.19c-1.4,0.06-2.9-2.29-4.36-3.57
		c1.61-1.63,2.99-3.84,4.94-4.62C408.86,141.98,410.88,144.31,413.74,146.36z"/>
	<path fill="#FFFFFF" d="M121.4,364.01c1.96,2.81,4.25,4.89,3.86,5.81c-0.82,1.91-2.87,3.73-4.83,4.49
		c-0.74,0.29-3.98-2.74-3.76-3.76C117.1,368.56,119.15,366.91,121.4,364.01z"/>
	<path fill="#FFFFFF" d="M362.61,175.74c-2.92,2.13-4.67,4.39-6.35,4.34c-1.53-0.04-2.99-2.59-4.48-4.03c1.59-1.45,3-3.67,4.82-4.09
		C357.88,171.68,359.73,173.83,362.61,175.74z"/>
	<path fill="#FFFFFF" d="M119.96,147.63c2.02,2.83,4.09,4.5,4.17,6.26c0.06,1.33-2.41,2.78-3.76,4.18
		c-1.63-1.62-3.82-3.02-4.62-4.98C115.4,152.24,117.88,150.22,119.96,147.63z"/>
	<path fill="#FFFFFF" d="M367.96,318.71c-3.01,2.02-4.8,4.14-6.08,3.86c-1.84-0.39-3.31-2.53-4.93-3.92
		c1.48-1.48,2.87-4.01,4.47-4.15C363.02,314.36,364.85,316.58,367.96,318.71z"/>
	<path fill="#FFFFFF" d="M175.93,313.26c-3.39,1.74-5.37,3.53-7.31,3.49c-1.27-0.02-2.49-2.69-3.73-4.17
		c1.8-1.42,3.44-3.48,5.47-3.99C171.4,308.34,173.14,310.83,175.93,313.26z"/>
	<path fill="#FFFFFF" d="M373.38,291.84c-1.78,1.02-3.73,3.06-5.3,2.8c-1.68-0.28-3.01-2.71-4.5-4.21c1.47-1.25,2.89-3.43,4.41-3.51
		c1.74-0.09,3.58,1.69,5.38,2.66C373.37,290.34,373.38,291.09,373.38,291.84z"/>
	<path fill="#FFFFFF" d="M96.94,219.09c2.21,2.72,4.69,4.48,4.52,5.93c-0.18,1.54-2.87,3.85-4.46,3.85c-1.46,0-3.67-2.46-4.1-4.19
		C92.62,223.54,94.91,221.76,96.94,219.09z"/>
	<path fill="#FFFFFF" d="M138.99,161.16c-2.82,1.96-4.61,4.15-5.91,3.89c-1.84-0.37-3.31-2.55-4.94-3.95
		c1.48-1.49,2.89-4.08,4.45-4.16C134.26,156.85,136.07,159.1,138.99,161.16z"/>
	<path fill="#FFFFFF" d="M171.1,262.37c-3.39,2.01-5.28,4.05-6.91,3.85c-1.63-0.2-2.99-2.62-4.47-4.06c1.54-1.36,3-3.68,4.64-3.82
		C165.99,258.21,167.8,260.27,171.1,262.37z"/>
	<path fill="#FFFFFF" d="M152.2,263.72c-1.83,0.91-3.77,2.68-5.46,2.47c-1.55-0.19-2.84-2.52-4.25-3.91
		c1.59-1.4,3.07-3.72,4.79-3.92c1.55-0.18,3.36,1.98,5.06,3.1C152.29,262.21,152.24,262.97,152.2,263.72z"/>
	<path fill="#FFFFFF" d="M136.92,261.97c-3.25,2.21-5.01,4.35-6.63,4.25c-1.66-0.11-3.17-2.4-4.75-3.74
		c1.45-1.46,2.76-3.87,4.4-4.12C131.54,258.11,133.48,260.07,136.92,261.97z"/>
	<path fill="#FFFFFF" d="M102.67,262.12c-3.25,2.11-5.04,4.19-6.65,4.06c-1.62-0.13-3.07-2.44-4.6-3.8
		c1.45-1.46,2.77-3.91,4.38-4.11C97.41,258.06,99.3,260.1,102.67,262.12z"/>
	<path fill="#FFFFFF" d="M78.71,268.42c-2.2-2.89-4.57-4.67-4.4-6.14c0.18-1.54,2.8-3.84,4.38-3.86c1.49-0.02,4.05,2.37,4.23,3.92
		C83.09,263.81,80.8,265.58,78.71,268.42z"/>
	<path fill="#FFFFFF" d="M163.07,293.67c-2.01-2.69-4.32-4.56-4-5.62c0.55-1.77,2.7-4.06,4.32-4.17c1.39-0.1,4.04,2.44,4.17,3.98
		C167.69,289.33,165.27,291,163.07,293.67z"/>
	<path fill="#FFFFFF" d="M128.37,224.67c2.29,2.74,4.73,4.42,4.6,5.85c-0.15,1.56-2.7,4.03-4.19,4.02c-1.5-0.01-3.7-2.37-4.21-4.1
		C124.23,229.33,126.41,227.48,128.37,224.67z"/>
	<path fill="#FFFFFF" d="M401.88,233.93c-2.02-2.56-4.32-4.25-4.11-5.52c0.28-1.73,2.43-4.32,3.87-4.39
		c1.54-0.07,4.3,2.27,4.46,3.78C406.27,229.34,403.92,231.15,401.88,233.93z"/>
	<path fill="#FFFFFF" d="M153.83,290.73c-3.46,2.05-5.38,4.1-6.93,3.85c-1.69-0.26-3.04-2.67-4.54-4.13
		c1.69-1.27,3.27-3.26,5.13-3.58C148.83,286.64,150.56,288.63,153.83,290.73z"/>
	<path fill="#FFFFFF" d="M86.26,223.49c-1.76,0.99-3.74,3.01-5.22,2.69c-1.72-0.37-3-2.79-4.47-4.33c1.5-1.26,2.97-3.47,4.51-3.53
		c1.7-0.07,3.47,1.85,5.21,2.91C86.28,221.99,86.27,222.74,86.26,223.49z"/>
	<path fill="#FFFFFF" d="M81.68,296.25c2.17,2.59,4.62,4.35,4.35,5.46c-0.43,1.78-2.52,4.13-4.15,4.34
		c-1.36,0.17-4.12-2.25-4.32-3.78C77.37,300.8,79.67,299.01,81.68,296.25z"/>
	<path fill="#FFFFFF" d="M438.37,303.42c-1.79,0.99-3.78,3-5.31,2.69c-1.68-0.34-2.93-2.82-4.37-4.36c1.49-1.27,2.96-3.52,4.47-3.55
		c1.73-0.03,3.5,1.92,5.25,3C438.4,301.95,438.38,302.68,438.37,303.42z"/>
	<path fill="#FFFFFF" d="M422.15,334.75c2.48,2.68,4.96,4.17,5.07,5.83c0.1,1.49-2.39,3.15-3.74,4.74c-1.53-1.42-3.81-2.6-4.34-4.32
		C418.75,339.71,420.62,337.73,422.15,334.75z"/>
	<path fill="#FFFFFF" d="M399.06,369.68c-2.89,1.98-4.85,4.25-5.99,3.89c-1.93-0.61-3.33-2.87-4.96-4.44c1.34-1.37,2.89-4,3.98-3.82
		C394.15,365.63,395.95,367.59,399.06,369.68z"/>
	<path fill="#FFFFFF" d="M137.1,113.94c-2.72,1.98-4.81,4.34-5.65,3.96c-1.91-0.87-3.21-3.09-4.75-4.76
		c1.42-1.28,2.95-3.7,4.22-3.57C132.71,109.75,134.3,111.83,137.1,113.94z"/>
	<path fill="#FFFFFF" d="M376.78,125.01c-3.31,2.09-5.12,3.86-7.2,4.27c-0.96,0.19-3.71-3.01-3.47-3.43c1.1-1.91,2.72-4,4.64-4.75
		C371.76,120.72,373.79,122.98,376.78,125.01z"/>
	<path fill="#FFFFFF" d="M423.8,189.31c-2.12-2.49-4.72-4.53-4.38-5.34c0.82-1.97,2.81-3.75,4.77-4.73
		c0.55-0.27,3.78,2.56,3.72,3.87C427.82,184.88,425.75,186.56,423.8,189.31z"/>
	<path fill="#FFFFFF" d="M111.53,188.63c-3.11,1.95-5.14,4.1-6.22,3.7c-1.87-0.69-3.15-2.96-4.69-4.57
		c1.48-1.17,3.01-3.33,4.41-3.26C106.79,184.6,108.44,186.54,111.53,188.63z"/>
	<path fill="#FFFFFF" d="M415.66,188.76c-3.16,1.89-4.96,3.76-6.76,3.77c-1.39,0.01-2.8-2.31-4.19-3.6c1.67-1.5,3.14-3.69,5.07-4.23
		C410.93,184.39,412.8,186.68,415.66,188.76z"/>
	<path fill="#FFFFFF" d="M125.65,193.52c-2.97,2.06-4.9,4.31-5.98,3.96c-1.89-0.62-3.25-2.83-4.84-4.38
		c1.41-1.26,2.85-3.54,4.23-3.51C120.82,189.63,122.54,191.54,125.65,193.52z"/>
	<path fill="#FFFFFF" d="M386.38,199.42c-3.17,1.92-5.07,3.99-6.7,3.8c-1.58-0.18-2.9-2.69-4.33-4.18c1.67-1.32,3.22-3.42,5.04-3.7
		C381.73,195.13,383.44,197.3,386.38,199.42z"/>
	<path fill="#FFFFFF" d="M424.41,225.42c-3.38,1.81-5.25,3.61-6.99,3.5c-1.5-0.09-2.87-2.36-4.3-3.66c1.73-1.43,3.29-3.55,5.26-4.04
		C419.55,220.91,421.36,223.18,424.41,225.42z"/>
	<path fill="#FFFFFF" d="M119.75,227.55c-3.4,2.3-5.26,4.55-6.77,4.33c-1.75-0.25-3.18-2.67-4.75-4.14c1.4-1.37,2.73-3.74,4.24-3.86
		C114.21,223.74,116.1,225.58,119.75,227.55z"/>
	<path fill="#FFFFFF" d="M392.66,230.64c-3.26,2.06-5.11,4.16-6.68,3.97c-1.68-0.21-3.09-2.57-4.62-4c1.64-1.33,3.13-3.41,4.95-3.75
		C387.67,226.62,389.45,228.62,392.66,230.64z"/>
	<path fill="#FFFFFF" d="M144.54,239.58c-2.23-3.04-4.62-4.93-4.35-6.31c0.3-1.56,2.91-3.53,4.65-3.68
		c1.29-0.11,3.91,2.37,3.95,3.75C148.82,234.94,146.69,236.6,144.54,239.58z"/>
	<path fill="#FFFFFF" d="M118.15,263.04c-1.66,1.14-3.4,3.3-4.95,3.17c-1.75-0.15-3.31-2.36-4.96-3.68c1.46-1.49,2.76-3.87,4.44-4.2
		c1.55-0.3,3.53,1.61,5.32,2.55C118.06,261.61,118.1,262.32,118.15,263.04z"/>
	<path fill="#FFFFFF" d="M409.11,263.19c-1.72,1.11-3.46,3.09-5.17,3.06c-1.54-0.03-3.04-2.26-4.55-3.52
		c1.41-1.56,2.62-4.07,4.27-4.4c1.55-0.31,3.55,1.69,5.36,2.68C409.05,261.74,409.08,262.46,409.11,263.19z"/>
	<path fill="#FFFFFF" d="M357.52,345.63c-2.93,2.11-4.87,4.42-5.91,4.07c-1.93-0.66-3.33-2.86-4.95-4.43
		c1.31-1.35,2.76-3.93,3.9-3.79C352.55,341.71,354.34,343.6,357.52,345.63z"/>
	<path fill="#FFFFFF" d="M92.13,347.09c-2.18-2.66-4.6-4.51-4.29-5.47c0.63-1.95,2.51-3.86,4.37-4.84c0.64-0.33,4.05,2.32,3.94,3.36
		C95.95,342.12,94.1,343.92,92.13,347.09z"/>
	<path fill="#FFFFFF" d="M193.48,332.35c-3.24,1.91-5.04,3.78-6.85,3.78c-1.42,0-2.84-2.3-4.26-3.57c1.72-1.53,3.24-3.68,5.24-4.32
		C188.67,327.9,190.57,330.21,193.48,332.35z"/>
	<path fill="#FFFFFF" d="M392.06,323.74c2.16,2.78,4.49,4.49,4.39,6.04c-0.09,1.46-2.87,3.95-4.26,3.82
		c-1.62-0.16-3.76-2.46-4.24-4.22C387.65,328.27,389.98,326.45,392.06,323.74z"/>
	<path fill="#FFFFFF" d="M383.51,324.64c-3.28,1.82-5.14,3.69-6.45,3.37c-1.8-0.45-3.2-2.56-4.76-3.96
		c1.56-1.39,3.06-3.78,4.69-3.88C378.58,320.08,380.32,322.32,383.51,324.64z"/>
	<path fill="#FFFFFF" d="M137.28,294.35c-3.49,1.57-5.47,3.24-7.21,3.01c-1.45-0.19-2.62-2.59-3.91-4.01
		c1.83-1.31,3.53-3.31,5.53-3.68C132.84,289.46,134.48,291.89,137.28,294.35z"/>
	<path fill="#FFFFFF" d="M389.63,294.89c-1.83,0.92-3.86,2.81-5.43,2.48c-1.65-0.34-2.85-2.81-4.25-4.35
		c1.51-1.19,3.04-3.37,4.52-3.33c1.77,0.04,3.5,1.97,5.25,3.09C389.69,293.48,389.66,294.18,389.63,294.89z"/>
	<path fill="#FFFFFF" d="M103.27,300.2c-1.77,1.06-3.54,2.93-5.31,2.94c-1.45,0.01-2.91-2.21-4.36-3.45
		c1.42-1.49,2.67-3.92,4.31-4.21c1.56-0.28,3.53,1.65,5.31,2.61C103.24,298.79,103.25,299.5,103.27,300.2z"/>
	<path fill="#FFFFFF" d="M416.94,305.35c-2.12-2.89-4.44-4.7-4.24-6.17c0.21-1.51,2.94-3.76,4.46-3.68
		c1.46,0.08,3.56,2.56,3.92,4.29C421.32,300.97,419.04,302.67,416.94,305.35z"/>
	<path fill="#FFFFFF" d="M185.72,301.1c1.7,2.7,3.85,4.69,3.47,5.88c-0.54,1.73-2.88,3.92-4.51,3.97c-1.38,0.04-4.06-2.8-3.94-4.17
		C180.9,305.09,183.36,303.62,185.72,301.1z"/>
	<path fill="#FFFFFF" d="M184.96,285.72c-1.72,1.1-3.54,3.18-5.14,3.02c-1.68-0.16-3.15-2.47-4.71-3.84
		c1.41-1.33,2.7-3.58,4.25-3.76c1.71-0.2,3.64,1.48,5.47,2.34C184.87,284.23,184.91,284.97,184.96,285.72z"/>
	<path fill="#FFFFFF" d="M173.74,334.35c2.08,2.53,4.57,4.47,4.24,5.38c-0.66,1.8-2.69,3.76-4.51,4.22
		c-1.05,0.26-4.02-2.38-3.94-3.58C169.63,338.64,171.72,337.04,173.74,334.35z"/>
	<path fill="#FFFFFF" d="M441.88,263.69c-1.82,0.93-3.86,2.86-5.39,2.52c-1.65-0.37-2.82-2.87-4.2-4.44
		c1.53-1.21,3.06-3.35,4.6-3.36c1.69-0.02,3.4,1.93,5.11,3.02C441.96,262.17,441.92,262.93,441.88,263.69z"/>
	<path fill="#FFFFFF" d="M425.49,263.22c-1.73,1.1-3.61,3.25-5.14,3.03c-1.72-0.26-3.12-2.66-4.66-4.12
		c1.45-1.35,2.82-3.64,4.38-3.79c1.68-0.16,3.56,1.69,5.35,2.67C425.45,261.74,425.47,262.48,425.49,263.22z"/>
	<path fill="#FFFFFF" d="M160.3,353.71c-2.01-2.95-4.16-4.79-3.84-5.93c0.5-1.76,2.51-3.82,4.24-4.23c1.16-0.27,4.33,2.42,4.15,3.26
		C164.42,348.83,162.55,350.54,160.3,353.71z"/>
	<path fill="#FFFFFF" d="M440.21,222.58c-3.3,1.88-5.26,3.91-6.87,3.66c-1.57-0.24-2.78-2.8-4.15-4.34
		c1.68-1.24,3.27-3.25,5.08-3.47C435.62,218.27,437.26,220.41,440.21,222.58z"/>
	<path fill="#FFFFFF" d="M147.73,197.5c1.87,3.34,3.56,5.09,3.6,6.89c0.03,1.15-2.89,3.6-3.58,3.31c-1.79-0.75-3.81-2.5-4.29-4.24
		C143.16,202.34,145.45,200.53,147.73,197.5z"/>
	<path fill="#FFFFFF" d="M401.05,193.67c-3.16,2.25-4.93,4.49-6.53,4.37c-1.62-0.13-3.06-2.59-4.58-4.02
		c1.6-1.38,3.04-3.47,4.86-3.89C396.09,189.83,397.91,191.79,401.05,193.67z"/>
	<path fill="#FFFFFF" d="M372.63,406.31c-2.19-2.51-4.33-3.96-4.72-5.79c-0.22-1.03,2.41-2.68,3.76-4.05
		c1.45,1.47,3.48,2.72,4.12,4.48C376.14,401.94,374.21,403.77,372.63,406.31z"/>
	<path fill="#FFFFFF" d="M90.25,177.13c2.19,2.59,4.6,4.2,4.61,5.81c0.01,1.51-2.53,3.04-3.94,4.56c-1.56-1.47-3.9-2.72-4.41-4.49
		C86.15,181.81,88.39,179.87,90.25,177.13z"/>
	<path fill="#FFFFFF" d="M375.41,168.84c-3.1,1.86-4.89,3.75-6.68,3.75c-1.36,0.01-2.72-2.38-4.09-3.71
		c1.68-1.51,3.16-3.66,5.11-4.26C370.8,164.31,372.66,166.69,375.41,168.84z"/>
	<path fill="#FFFFFF" d="M388.27,161.3c-3.11,1.96-4.84,3.86-6.62,3.91c-1.35,0.04-2.77-2.27-4.16-3.54
		c1.61-1.55,2.99-3.75,4.9-4.39C383.44,156.93,385.37,159.22,388.27,161.3z"/>
	<path fill="#FFFFFF" d="M351.4,146.52c-3.38,1.96-5.23,3.64-7.28,3.94c-0.95,0.14-3.53-3.11-3.26-3.58
		c1.1-1.88,2.82-3.86,4.76-4.58C346.56,141.95,348.5,144.31,351.4,146.52z"/>
	<path fill="#FFFFFF" d="M357.91,129.64c1.95,2.74,4.28,4.83,3.89,5.68c-0.89,1.96-3.11,3.31-4.78,4.9
		c-1.3-1.47-3.73-3.03-3.61-4.37C353.56,134.07,355.71,132.47,357.91,129.64z"/>
	<path fill="#FFFFFF" d="M143.02,394.66c2.11,2.67,4.4,4.93,4.12,5.32c-1.3,1.79-3.24,3.21-5.2,4.34c-0.25,0.14-2.94-2.41-2.74-3.34
		C139.61,399.11,141.22,397.48,143.02,394.66z"/>
	<path fill="#FFFFFF" d="M359.98,384.91c2.16,2.88,4.21,4.49,4.39,6.27c0.12,1.22-2.77,4.02-3.66,3.77
		c-1.86-0.52-3.99-2.33-4.61-4.11C355.73,389.78,358,387.79,359.98,384.91z"/>
	<path fill="#FFFFFF" d="M154.2,397.13c-1.85-2.93-3.97-4.91-3.58-6c0.62-1.76,2.73-3.63,4.54-4.06c0.96-0.23,3.84,2.62,3.69,3.79
		C158.6,392.66,156.5,394.22,154.2,397.13z"/>
	<path fill="#FFFFFF" d="M77.13,340.42c1.79,2.84,3.93,4.82,3.55,5.95c-0.56,1.68-2.91,2.77-4.49,4.1c-1.2-1.47-3.35-2.95-3.33-4.41
		C72.88,344.56,74.99,343.08,77.13,340.42z"/>
	<path fill="#FFFFFF" d="M337.58,331.64c1.94,3.01,3.93,4.75,3.85,6.4c-0.07,1.36-3.02,3.9-3.94,3.6c-1.74-0.57-3.66-2.62-4.1-4.4
		C333.12,336.13,335.42,334.39,337.58,331.64z"/>
	<path fill="#FFFFFF" d="M144.48,323.97c-2.99,1.74-4.78,3.59-6.51,3.53c-1.41-0.05-2.74-2.39-4.1-3.72
		c1.83-1.33,3.52-3.14,5.57-3.77C140.32,319.75,141.96,321.92,144.48,323.97z"/>
	<path fill="#FFFFFF" d="M153.6,323.68c-1.97-2.6-4.36-4.73-3.99-5.48c0.87-1.73,2.95-3.58,4.77-3.86c1.18-0.18,4.08,2.59,3.88,3.59
		C157.92,319.71,155.81,321.14,153.6,323.68z"/>
	<path fill="#FFFFFF" d="M407.72,296.55c-3.51,2.04-5.47,4.11-7.06,3.86c-1.64-0.26-2.91-2.78-4.35-4.32
		c1.43-1.24,2.87-3.49,4.28-3.48C402.41,292.64,404.2,294.48,407.72,296.55z"/>
	<path fill="#FFFFFF" d="M120.89,296.47c-3.17,2.02-5.03,4.13-6.6,3.94c-1.61-0.2-2.95-2.65-4.41-4.12c1.62-1.34,3.1-3.45,4.9-3.76
		C116.11,292.29,117.85,294.39,120.89,296.47z"/>
	<path fill="#FFFFFF" d="M392.64,263.11c-1.7,1.12-3.39,3.1-5.1,3.11c-1.5,0.01-3.02-2.18-4.53-3.39c1.35-1.56,2.5-4.07,4.1-4.4
		c1.57-0.32,3.59,1.58,5.42,2.51C392.57,261.66,392.6,262.39,392.64,263.11z"/>
	<path fill="#FFFFFF" d="M370.65,255.97c2.36,3.06,4.71,4.8,4.52,6.2c-0.22,1.6-2.55,3.77-4.23,4.04c-1.24,0.2-3.96-2.14-4.1-3.55
		C366.68,261.07,368.66,259.26,370.65,255.97z"/>
	<path fill="#FFFFFF" d="M181.24,256.3c1.96,2.87,4.04,4.59,3.96,6.2c-0.06,1.38-2.86,3.89-3.98,3.66c-1.7-0.36-3.78-2.46-4.2-4.19
		C176.75,260.83,179.09,259.05,181.24,256.3z"/>
	<path fill="#FFFFFF" d="M61.64,267.99c-1.87-2.54-4.16-4.39-3.85-5.55c0.45-1.71,2.76-2.93,4.27-4.36
		c1.37,1.55,3.57,2.96,3.83,4.68C66.09,263.99,63.68,265.62,61.64,267.99z"/>
	<path fill="#FFFFFF" d="M382.26,120.9c-1.78-3.16-3.72-5.11-3.33-6.27c0.59-1.76,2.63-3.65,4.41-4.12c0.96-0.25,3.98,2.64,3.77,3.6
		C386.68,116.08,384.69,117.71,382.26,120.9z"/>
	<path fill="#FFFFFF" d="M142.46,117.06c2.09,3.33,3.94,5.12,4.16,7.09c0.12,1.06-3.05,3.71-3.86,3.4c-1.75-0.69-3.67-2.64-4.1-4.42
		C138.36,121.9,140.45,120.1,142.46,117.06z"/>
	<path fill="#FFFFFF" d="M107.45,152.43c-2.1-2.89-4.15-4.51-4.22-6.21c-0.05-1.32,2.35-2.75,3.67-4.13
		c1.62,1.56,3.76,2.89,4.61,4.79C111.86,147.7,109.52,149.72,107.45,152.43z"/>
	<path fill="#FFFFFF" d="M376.65,233.85c-3.36,1.81-5.18,3.59-6.87,3.46c-1.46-0.11-2.77-2.37-4.15-3.67
		c1.67-1.43,3.16-3.52,5.08-4.03C371.82,229.32,373.61,231.57,376.65,233.85z"/>
	<path fill="#FFFFFF" d="M65.65,213.47c1.97,2.84,3.98,4.5,4.03,6.22c0.03,1.24-2.77,3.75-3.91,3.55c-1.68-0.31-3.85-2.35-4.22-4.01
		C61.28,218.01,63.57,216.23,65.65,213.47z"/>
	<path fill="#FFFFFF" d="M365.81,198.63c1.77,2.72,3.9,4.62,3.57,5.83c-0.48,1.72-2.72,3.96-4.32,4.06
		c-1.32,0.08-3.95-2.67-3.91-4.1C361.19,202.8,363.57,201.24,365.81,198.63z"/>
	<path fill="#FFFFFF" d="M343.67,189.36c-2.09-2.66-4.46-4.46-4.18-5.62c0.42-1.77,2.47-3.8,4.25-4.35
		c0.93-0.29,3.94,2.35,3.91,3.63C347.62,184.76,345.61,186.48,343.67,189.36z"/>
	<path fill="#FFFFFF" d="M400.87,153.94c-3,1.99-4.84,4.15-6.45,3.99c-1.52-0.15-2.79-2.75-4.17-4.27c1.62-1.36,3.1-3.49,4.91-3.83
		C396.4,149.6,398.11,151.84,400.87,153.94z"/>
	<path fill="#FFFFFF" d="M145.29,161.9c1.96,3.37,3.87,5.19,3.72,6.83c-0.12,1.34-2.83,3.55-4.14,3.38
		c-1.47-0.19-3.47-2.51-3.68-4.11C141.01,166.66,143.08,165.02,145.29,161.9z"/>
	<path fill="#FFFFFF" d="M338.75,157.29c-3.36,1.77-5.16,3.42-6.95,3.41c-1.19,0-3.61-3.01-3.32-3.58c0.89-1.75,2.64-3.73,4.4-4.15
		C334.03,152.71,335.78,155,338.75,157.29z"/>
	<path fill="#FFFFFF" d="M83.19,177.74c-3.12,2.24-4.71,4.28-6.15,4.18c-1.56-0.11-3.98-2.08-4.17-3.49
		c-0.18-1.32,1.97-4.08,3.28-4.19C77.86,174.09,79.75,175.9,83.19,177.74z"/>
	<path fill="#FFFFFF" d="M438.03,184.38c-2.01-3.19-3.96-4.92-3.74-6.3c0.25-1.54,2.43-3.76,3.87-3.84
		c1.35-0.07,3.94,2.26,3.96,3.57C442.15,179.47,440.15,181.18,438.03,184.38z"/>
	<path fill="#FFFFFF" d="M139.87,198.75c-3,2.08-4.94,4.32-5.98,3.97c-1.9-0.65-3.27-2.85-4.87-4.4c1.42-1.24,2.85-3.48,4.25-3.46
		C135.01,194.88,136.73,196.78,139.87,198.75z"/>
	<path fill="#FFFFFF" d="M357,209.66c-2.81,1.99-4.38,3.98-5.89,3.94c-1.51-0.05-2.96-2.13-4.44-3.32c1.41-1.51,2.6-3.84,4.29-4.27
		C352.22,205.69,354.1,207.8,357,209.66z"/>
	<path fill="#FFFFFF" d="M426.34,139.66c-3.24,1.73-5.12,3.55-6.83,3.4c-1.4-0.13-2.58-2.6-3.87-4.04c1.64-1.33,3.15-3.44,4.96-3.74
		C421.86,135.08,423.52,137.39,426.34,139.66z"/>
	<path fill="#FFFFFF" d="M95.06,133.19c1.91,2.9,3.92,4.64,3.9,6.35c-0.02,1.29-2.97,3.8-4.02,3.53c-1.72-0.45-3.73-2.57-4.12-4.31
		C90.56,137.6,92.92,135.85,95.06,133.19z"/>
	<path fill="#FFFFFF" d="M159.88,242.08c-1.82-2.75-3.83-4.45-3.68-5.92c0.15-1.47,2.87-4.04,3.75-3.77c1.75,0.53,3.82,2.5,4.2,4.21
		C164.4,237.76,161.99,239.51,159.88,242.08z"/>
	<path fill="#FFFFFF" d="M355,268.45c-2.09-2.93-4.13-4.56-4.15-6.21c-0.02-1.35,2.66-4.02,3.64-3.81c1.7,0.37,3.81,2.31,4.23,3.98
		C359.04,263.64,356.94,265.48,355,268.45z"/>
	<path fill="#FFFFFF" d="M200.2,295.6c2.03,2.69,4.33,4.54,4.01,5.6c-0.51,1.73-2.74,2.96-4.25,4.4c-1.29-1.39-3.49-2.7-3.61-4.18
		C196.25,299.98,198.26,298.37,200.2,295.6z"/>
	<path fill="#FFFFFF" d="M71.86,304.94c-2.9,1.96-4.71,4.12-6.05,3.85c-1.7-0.33-3.02-2.62-4.51-4.07c1.49-1.25,2.91-3.37,4.5-3.51
		C67.3,301.09,68.98,303.06,71.86,304.94z"/>
	<path fill="#FFFFFF" d="M438.35,352.66c-2.07-3.05-4.06-4.7-4.03-6.33c0.02-1.38,2.38-2.72,3.7-4.07c1.48,1.46,3.65,2.71,4.19,4.46
		C442.54,347.81,440.4,349.66,438.35,352.66z"/>
	<path fill="#FFFFFF" d="M140.02,362.2c-2.87,2.17-4.43,4.13-6.28,4.47c-1.14,0.21-2.73-2.05-4.12-3.19
		c1.51-1.53,2.79-3.6,4.61-4.36C135.21,358.7,137.13,360.57,140.02,362.2z"/>
	<path fill="#FFFFFF" d="M177.87,376.54c-1.68-2.53-3.75-4.52-3.37-5.27c0.91-1.81,2.81-3.4,4.69-4.26c0.53-0.24,3.6,2.74,3.34,3.59
		C181.97,372.48,180.03,373.96,177.87,376.54z"/>
	<path fill="#FFFFFF" d="M160.21,381.21c3.08-1.89,4.79-3.46,6.74-3.88c0.82-0.18,3.31,2.56,3.06,3.17
		c-0.77,1.9-2.21,4.09-3.95,4.82C165.13,385.71,163.04,383.3,160.21,381.21z"/>
	<path fill="#FFFFFF" d="M354.63,381.6c-2.75,1.89-4.71,4.13-5.78,3.77c-1.7-0.58-3.64-2.77-3.9-4.51c-0.18-1.19,2.57-4.1,3.59-3.91
		C350.37,377.27,351.88,379.35,354.63,381.6z"/>
	<path fill="#FFFFFF" d="M125.83,420.71c-3.39,1.9-5.25,3.77-6.95,3.63c-1.32-0.11-3.54-2.88-3.35-4.17
		c0.21-1.43,2.62-3.38,4.22-3.53C121.16,416.52,122.77,418.55,125.83,420.71z"/>
	<path fill="#FFFFFF" d="M401.87,420.24c-3.07,2.21-4.69,4.29-6.11,4.16c-1.6-0.15-3.93-2.11-4.23-3.62c-0.23-1.19,2.07-4,3.37-4.09
		C396.65,416.57,398.52,418.4,401.87,420.24z"/>
	<path fill="#FFFFFF" d="M100.23,385.27c-2.64,1.98-4.28,4.14-5.69,4.01c-1.45-0.14-3.81-2.6-3.72-3.91c0.1-1.51,2.3-3.74,3.86-4.01
		C95.97,381.14,97.66,383.34,100.23,385.27z"/>
	<path fill="#FFFFFF" d="M113.51,377.7c-2.61,1.84-4.24,3.86-5.79,3.81c-1.37-0.05-2.66-2.41-3.99-3.75c1.5-1.21,2.89-3.1,4.55-3.39
		C109.5,374.16,111.08,376.06,113.51,377.7z"/>
	<path fill="#FFFFFF" d="M342.29,371.27c-2.37,1.77-3.98,3.81-5.03,3.56c-1.61-0.38-3.39-2.15-3.99-3.74
		c-0.28-0.74,2.14-3.57,3.18-3.48C338.12,367.74,339.66,369.5,342.29,371.27z"/>
	<path fill="#FFFFFF" d="M378.66,366.69c-1.73-2.33-3.56-3.8-3.8-5.5c-0.14-0.96,2.84-3.51,3.51-3.22c1.79,0.77,3.48,2.49,4.37,4.25
		C383.01,362.75,380.56,364.66,378.66,366.69z"/>
	<path fill="#FFFFFF" d="M324.85,355.17c2.19,3.24,4,4.84,4.22,6.64c0.14,1.14-2.59,3.86-3.19,3.63c-1.84-0.7-3.98-2.21-4.62-3.92
		C320.85,360.45,322.9,358.44,324.85,355.17z"/>
	<path fill="#FFFFFF" d="M153.43,354.93c-2.91,1.64-4.65,3.23-6.55,3.43c-0.99,0.1-2.24-2.25-3.37-3.5c1.57-1.42,2.95-3.4,4.79-4.02
		C149.18,350.54,150.93,352.84,153.43,354.93z"/>
	<path fill="#FFFFFF" d="M200.07,318.66c1.99,2.86,4.22,4.74,3.89,5.89c-0.49,1.73-2.6,3.66-4.37,4.11
		c-0.94,0.24-3.74-2.49-3.7-3.81C195.94,323.15,198.01,321.51,200.07,318.66z"/>
	<path fill="#FFFFFF" d="M352.41,312.72c-2.69,2.14-4.39,4.46-5.58,4.22c-1.75-0.35-3.13-2.52-4.67-3.92
		c1.35-1.33,2.58-3.55,4.07-3.75C347.7,309.09,349.43,310.95,352.41,312.72z"/>
	<path fill="#FFFFFF" d="M395.79,97.79c1.89,3.08,4.03,5.11,3.63,6.25c-0.6,1.7-2.83,3.23-4.7,3.84c-0.68,0.22-3.41-2.57-3.23-3.67
		C391.79,102.36,393.67,100.76,395.79,97.79z"/>
	<path fill="#FFFFFF" d="M160.57,133.72c-3.31,1.75-5.33,3.67-6.49,3.24c-1.67-0.61-3.1-2.79-3.78-4.61
		c-0.2-0.55,2.61-3.21,3.75-3.03C155.85,129.59,157.41,131.45,160.57,133.72z"/>
	<path fill="#FFFFFF" d="M354.31,242.31c-1.98-2.85-4.17-4.69-3.86-5.88c0.44-1.67,2.57-3.61,4.28-3.97
		c1.03-0.21,3.75,2.41,3.71,3.69C358.39,237.83,356.36,239.45,354.31,242.31z"/>
	<path fill="#FFFFFF" d="M358.3,288.44c-3.04,1.66-4.85,3.48-6.3,3.22c-1.54-0.27-2.73-2.51-4.08-3.89c1.56-1.33,3.02-3.5,4.73-3.72
		C353.96,283.89,355.57,286.21,358.3,288.44z"/>
	<path fill="#FFFFFF" d="M202.08,282.3c-3.21,1.87-5,3.75-6.62,3.61c-1.41-0.12-2.62-2.52-3.92-3.91c1.51-1.39,2.87-3.55,4.59-3.9
		C197.35,277.85,199.07,280.06,202.08,282.3z"/>
	<path fill="#FFFFFF" d="M389.84,411.25c-2.57,1.89-4.42,4.03-5.23,3.7c-1.78-0.75-3.35-2.58-4.3-4.35
		c-0.25-0.46,2.33-3.46,3.2-3.29C385.41,407.69,387.03,409.37,389.84,411.25z"/>
	<path fill="#FFFFFF" d="M136.66,410.61c-2.75,2.07-4.26,3.95-6.06,4.28c-1.04,0.19-2.53-2.12-3.82-3.31
		c1.46-1.52,2.69-3.52,4.47-4.33C132.07,406.88,133.96,408.85,136.66,410.61z"/>
	<path fill="#FFFFFF" d="M413.4,335.5c-2.77,1.86-4.48,3.83-5.54,3.53c-1.62-0.46-2.8-2.49-4.17-3.85c1.26-1.14,2.54-3.21,3.79-3.19
		C409.04,332,410.59,333.73,413.4,335.5z"/>
	<path fill="#FFFFFF" d="M412.05,377.16c-2.43,2.01-3.97,4.17-5.03,3.96c-1.68-0.34-3.03-2.28-4.53-3.54
		c1.13-1.29,2.24-3.59,3.41-3.62C407.54,373.93,409.22,375.58,412.05,377.16z"/>
	<path fill="#FFFFFF" d="M370.56,353.88c-2.57,1.59-4.32,3.48-5.45,3.16c-1.63-0.45-2.81-2.51-4.18-3.88
		c1.29-1.2,2.72-3.48,3.85-3.34C366.47,350.03,367.95,351.93,370.56,353.88z"/>
	<path fill="#FFFFFF" d="M125.7,103.83c-2.97,2.12-4.6,4.18-5.98,4.03c-1.59-0.17-3.95-2.15-4.16-3.61
		c-0.19-1.29,2.06-4.1,3.33-4.16C120.61,100.01,122.43,101.91,125.7,103.83z"/>
	<path fill="#FFFFFF" d="M195.31,361.11c-2.62,2.03-4.24,4.24-5.63,4.1c-1.43-0.14-2.64-2.57-3.95-4c1.35-1.15,2.61-3.04,4.09-3.24
		C191.14,357.8,192.69,359.52,195.31,361.11z"/>
	<path fill="#FFFFFF" d="M107.22,329.86c2,2.51,4.17,4.21,3.87,5.09c-0.55,1.65-2.34,3.24-4,3.96c-0.63,0.27-3.39-2.02-3.31-3
		C103.91,334.23,105.5,332.67,107.22,329.86z"/>
	<path fill="#FFFFFF" d="M425.51,385.49c-2.67,1.78-4.48,3.79-5.44,3.45c-1.58-0.57-3-2.52-3.64-4.2c-0.21-0.56,2.28-3.11,3.31-2.98
		C421.39,381.97,422.85,383.65,425.51,385.49z"/>
</g>
</svg>
