<?xml version="1.0" encoding="utf-8"?>
<!-- Generator: Adobe Illustrator 25.4.1, SVG Export Plug-In . SVG Version: 6.00 Build 0)  -->
<svg version="1.1" baseProfile="tiny" id="Capa_1" xmlns="http://www.w3.org/2000/svg" xmlns:xlink="http://www.w3.org/1999/xlink"
	 x="0px" y="0px" viewBox="0 0 500 500" overflow="visible" xml:space="preserve">
<g>
	<path fill="#FFFFFF" d="M368.28,134.97c0,2.89,0,4.97,0,7.05c0.01,67.1,0.09,134.19,0,201.29c-0.03,23.35-0.4,46.7-0.82,70.04
		c-0.24,13.1-9.76,22.46-22.88,22.53c-22.98,0.14-45.95,0.02-68.93,0.03c-25.71,0-51.41,0.02-77.12,0.02
		c-13.72,0-27.43,0.03-41.15-0.02c-15.36-0.05-25.43-10.06-25.43-25.43c-0.03-89.14-0.02-178.28-0.02-267.42c0-2.46,0-4.93,0-8.08
		c-4.44,0-8.25-0.11-12.06,0.03c-4.79,0.18-7.25-1.62-6.96-6.77c0.26-4.63,0.3-9.29,0-13.91c-0.34-5.32,1.82-7.11,7.09-7.07
		c23.78,0.2,47.57-0.07,71.35,0.23c5.07,0.06,7.52-1.42,9.26-6.2c3.85-10.51,8.56-20.7,12.46-31.19c1.72-4.61,4.37-6.09,9.1-6.04
		c18.37,0.2,36.74,0.25,55.11-0.02c5.25-0.08,8.1,1.63,9.95,6.61c3.97,10.67,8.67,21.07,12.63,31.75c1.49,4.02,3.72,5.05,7.71,5.02
		c23.98-0.15,47.95-0.09,71.93-0.07c7.07,0.01,7.56,0.53,7.59,7.59c0.02,3.87,0.02,7.73,0.01,11.6c-0.02,7.94-0.44,8.35-8.66,8.42
		C375.37,134.99,372.28,134.97,368.28,134.97z M140.4,135.33c-0.1,2.24-0.26,4.13-0.26,6.01c-0.01,89.13-0.02,178.26,0,267.39
		c0,13.14,6.01,19.01,19.25,19.01c60.13,0,120.26,0,180.39,0c14.75,0,20.61-5.81,20.53-20.79c-0.11-20.63-0.61-41.26-0.63-61.88
		c-0.08-67.67-0.01-135.34,0-203.01c0-2.22,0-4.43,0-6.72C286.09,135.33,213.47,135.33,140.4,135.33z M378.81,115.92
		c-86.08,0-171.61,0-257.2,0c0,3.66,0,6.84,0,10.1c85.93,0,171.47,0,257.2,0C378.81,122.55,378.81,119.51,378.81,115.92z
		 M292.8,106.92c-4.23-10.45-8.34-20.15-12.03-30c-1.33-3.54-3.27-4.46-6.85-4.41c-14.68,0.2-29.38,0.44-44.05-0.08
		c-6.55-0.23-10.08,1.43-12.16,7.99c-2.82,8.89-6.8,17.41-10.46,26.51C236.09,106.92,263.97,106.92,292.8,106.92z"/>
	<path fill="#C6D900" d="M320.18,279.9c1.07,39.17-29.93,71.91-69.75,72.11c-37.32,0.19-69.72-29.54-70.84-68.87
		c-1.09-38.34,30.18-70.96,69.01-71.93C286.84,210.25,319.13,241.24,320.18,279.9z M250.26,219.66
		c-34.47-0.08-62.75,27.83-62.45,62.18c0.29,33.08,26.65,62.06,61.95,61.83c34.11-0.22,62.05-27.44,62.13-61.17
		C311.96,247.6,284.64,219.74,250.26,219.66z"/>
	<path fill="#FFFFFF" d="M168.76,281.72c0,38.66,0,77.33,0,115.99c0,1.74,0.53,3.75-0.16,5.15c-0.94,1.93-2.81,3.41-4.28,5.08
		c-1.25-1.66-2.88-3.17-3.64-5.03c-0.61-1.5-0.19-3.43-0.19-5.17c-0.01-77.52-0.04-155.04,0.05-232.56c0-3.63-1.9-9.58,4.35-9.38
		c5.59,0.18,3.8,5.81,3.81,9.35C168.8,204.01,168.76,242.86,168.76,281.72z"/>
	<path fill="#FFFFFF" d="M339.14,282.31c0,35.19-0.01,70.38,0.02,105.57c0,4.83,0.65,9.7,0.13,14.46c-0.22,2.01-2.69,3.77-4.13,5.65
		c-1.31-1.83-3.7-3.63-3.75-5.48c-0.31-12.56-0.12-25.14-0.1-37.7c0.01-9.65,0.02-19.31,0.02-28.96c0-57.05-0.02-114.1,0.06-171.15
		c0-3.52-1.6-9.03,4.25-8.92c5.41,0.11,3.76,5.39,3.77,8.76c0.09,39.26,0.05,78.52,0.05,117.78
		C339.35,282.31,339.25,282.31,339.14,282.31z"/>
	<path fill="#FFFFFF" d="M320.83,365.24c0,11.2,0.01,22.39-0.02,33.59c0,1.15,0.12,2.52-0.43,3.41c-1.19,1.91-2.78,3.57-4.21,5.33
		c-1.07-1.98-3.03-3.93-3.07-5.93c-0.28-13.86-0.08-27.73-0.19-41.6c-0.07-9.63-0.6-19.27-0.4-28.89c0.04-2.07,2.12-5.58,3.7-5.85
		c3.7-0.65,4.52,2.66,4.53,5.81c0.02,11.38,0.01,22.75,0.01,34.13C320.78,365.24,320.81,365.24,320.83,365.24z"/>
	<path fill="#FFFFFF" d="M312.47,196.43c0-11.41,0.01-22.82-0.01-34.23c-0.01-2.99-0.13-6.46,3.81-6.57
		c4.21-0.12,4.49,3.4,4.49,6.67c-0.01,23.01-0.01,46.03,0.01,69.04c0,3.27-0.26,6.87-4.34,6.86c-4.35-0.01-3.97-3.81-3.96-6.96
		C312.48,219.63,312.47,208.03,312.47,196.43z"/>
	<path fill="#FFFFFF" d="M179.44,366.23c0-11.39-0.01-22.79,0.01-34.18c0-2.87-0.5-6.5,3.66-6.54c3.75-0.04,4.21,3.07,4.2,6.26
		c-0.06,23.35,0.05,46.69-0.21,70.03c-0.02,2.08-2.13,5.75-3.54,5.89c-3.76,0.36-4.13-2.99-4.12-6.12
		c0.06-11.78,0.02-23.56,0.02-35.34C179.45,366.23,179.45,366.23,179.44,366.23z"/>
	<path fill="#FFFFFF" d="M187.66,196.86c0,11.6-0.01,23.19,0,34.79c0,3.04-0.1,6.32-4.17,6.22c-3.99-0.1-4.04-3.35-4.03-6.4
		c0.02-23.19,0.02-46.38-0.01-69.57c0-3.11,0.26-6.34,4.18-6.26c3.88,0.08,4.06,3.36,4.05,6.44
		C187.64,173.67,187.66,185.27,187.66,196.86z"/>
	<path fill="#FFFFFF" d="M198.44,187.13c0-8.49-0.25-17,0.18-25.47c0.1-2.08,2.13-5.49,3.74-5.78c3.87-0.7,4.44,2.84,4.45,5.85
		c0.06,17.18,0.06,34.36,0.01,51.54c-0.01,2.97-0.3,6.3-4.28,6.25c-3.97-0.05-4.12-3.26-4.11-6.32
		C198.46,204.5,198.43,195.82,198.44,187.13z"/>
	<path fill="#FFFFFF" d="M301.54,188.12c0,8.48-0.01,16.96,0.01,25.44c0.01,3.05-0.23,6.54-4.21,5.85
		c-1.63-0.28-3.84-3.65-3.88-5.65c-0.31-17.34-0.16-34.69-0.19-52.03c-0.01-3.16,0.58-6.45,4.32-5.91c1.55,0.22,3.67,3.66,3.76,5.71
		C301.77,170.38,301.53,179.26,301.54,188.12z"/>
	<path fill="#FFFFFF" d="M206.91,376.26c0,8.48,0.24,16.97-0.18,25.43c-0.1,2.04-2.4,3.97-3.69,5.95c-1.33-1.96-3.76-3.88-3.82-5.87
		c-0.47-17.9-0.61-35.81-0.54-53.71c0.01-1.48,2.05-3.61,3.6-4.16c0.92-0.32,3.35,1.59,3.97,2.99c0.8,1.82,0.6,4.14,0.61,6.24
		c0.06,7.71,0.02,15.42,0.02,23.12C206.89,376.26,206.9,376.26,206.91,376.26z"/>
	<path fill="#FFFFFF" d="M301.08,375.8c-0.01,8.69,0.24,17.4-0.18,26.07c-0.1,2.11-2.37,4.12-3.64,6.17
		c-1.34-1.99-3.83-3.97-3.85-5.98c-0.19-17.38-0.06-34.76,0.37-52.14c0.05-2,2.52-3.94,3.87-5.91c1.15,2.1,3.18,4.15,3.28,6.29
		C301.31,358.79,301.08,367.3,301.08,375.8z"/>
	<path fill="#FFFFFF" d="M255.42,179.88c0-6.35-0.3-12.73,0.19-19.04c0.14-1.86,2.52-3.54,3.87-5.31c1.44,1.72,4.07,3.4,4.12,5.16
		c0.35,13.08,0.35,26.18,0,39.26c-0.05,1.78-2.39,4.7-4.05,5c-3.63,0.66-4.11-2.61-4.13-5.44c-0.06-6.55-0.02-13.09-0.02-19.64
		C255.41,179.88,255.41,179.88,255.42,179.88z"/>
	<path fill="#FFFFFF" d="M282.53,182.52c0,7.14,0.29,14.3-0.19,21.4c-0.14,2.02-2.5,3.9-3.85,5.84c-1.37-1.95-3.87-3.87-3.92-5.86
		c-0.35-14.08-0.35-28.17-0.02-42.24c0.05-2.07,2.14-5.59,3.72-5.85c3.8-0.62,4.32,2.68,4.28,5.86
		C282.48,168.63,282.54,175.57,282.53,182.52z"/>
	<path fill="#FFFFFF" d="M225.65,182.99c0,7.13,0.27,14.28-0.18,21.38c-0.12,1.85-2.47,3.55-3.8,5.32c-1.4-1.71-3.99-3.39-4.02-5.13
		c-0.32-14.64-0.32-29.3,0.02-43.94c0.04-1.73,2.7-3.39,4.14-5.09c1.29,1.83,3.57,3.59,3.68,5.49
		C225.91,168.33,225.65,175.67,225.65,182.99z"/>
	<path fill="#FFFFFF" d="M282.56,380.97c0,7.15,0.26,14.32-0.17,21.44c-0.12,1.92-2.35,3.72-3.62,5.57c-1.5-1.86-4.25-3.7-4.29-5.59
		c-0.25-14.47-0.09-28.95,0.31-43.42c0.05-1.68,2.4-3.29,3.68-4.93c1.26,1.64,3.51,3.23,3.61,4.93c0.4,7.31,0.17,14.66,0.17,22
		C282.35,380.97,282.45,380.97,282.56,380.97z"/>
	<path fill="#FFFFFF" d="M225.35,380.96c0,6.92,0.26,13.86-0.16,20.76c-0.12,1.95-2.01,5.16-3.45,5.39
		c-3.67,0.57-3.83-2.69-3.87-5.53c-0.16-12.88-0.36-25.77-0.53-38.65c-0.02-1.15-0.33-2.54,0.18-3.42c1.13-1.94,2.69-3.64,4.07-5.43
		c1.25,1.84,3.45,3.63,3.57,5.54c0.43,7.09,0.17,14.22,0.17,21.34C225.33,380.96,225.34,380.96,225.35,380.96z"/>
	<path fill="#FFFFFF" d="M244.56,180.77c0,6.35,0.29,12.72-0.18,19.04c-0.14,1.86-2.4,3.57-3.68,5.35
		c-1.45-1.84-4.09-3.65-4.14-5.53c-0.37-12.89-0.34-25.79-0.01-38.68c0.05-1.84,2.22-4.88,3.8-5.16c3.4-0.6,4.26,2.33,4.25,5.34
		c-0.03,6.54-0.01,13.09-0.01,19.63C244.58,180.77,244.57,180.77,244.56,180.77z"/>
	<path fill="#FFFFFF" d="M236.65,382.14c0-5.99-0.3-12,0.16-17.95c0.15-1.93,2.28-3.72,3.5-5.57c1.29,1.75,3.66,3.46,3.71,5.24
		c0.31,12.93,0.29,25.87-0.02,38.79c-0.04,1.62-2.34,3.19-3.59,4.78c-1.25-1.67-3.47-3.28-3.58-5.02
		C236.41,395.68,236.66,388.9,236.65,382.14z"/>
	<path fill="#FFFFFF" d="M256,387.85c0-8.45-0.16-16.9,0.15-25.33c0.05-1.49,2.04-2.9,3.14-4.35c1.49,1.43,4.26,2.85,4.27,4.29
		c0.16,13.64-0.04,27.29-0.5,40.92c-0.05,1.41-2.48,2.74-3.8,4.11c-1.08-1.37-2.94-2.65-3.11-4.13c-0.61-5.13-0.65-10.33-0.9-15.51
		C255.49,387.85,255.75,387.85,256,387.85z"/>
	<path fill="#FFFFFF" d="M249.85,101.56c-8.32,0-16.63,0.11-24.95-0.04c-5.53-0.1-6.8-2.17-4.93-7.36
		c5.97-16.6,5.97-16.59,23.28-16.59c8.32,0,16.63-0.12,24.94,0.09c1.94,0.05,4.92,0.69,5.59,1.99c2.8,5.48,5.41,11.17,7.09,17.07
		c1.02,3.57-2.23,4.86-5.51,4.86c-8.51,0.02-17.02,0.01-25.53,0.01C249.85,101.58,249.85,101.57,249.85,101.56z M269.99,92.87
		c-0.41-5.16-2.39-7.31-7.4-7.07c-8.25,0.38-16.55,0.4-24.8,0.01c-5.12-0.24-7.48,1.68-7.7,7.06
		C243.3,92.87,256.43,92.87,269.99,92.87z"/>
</g>
</svg>
